<svg id="Layer_1" data-name="Layer 1" xmlns="http://www.w3.org/2000/svg" viewBox="0 0 412.04 362.88"><defs><style>.cls-1,.cls-10,.cls-5,.cls-6,.cls-7{fill:none;}.cls-2{fill:#a7a9ac;}.cls-2,.cls-3,.cls-4,.cls-5,.cls-6,.cls-7{stroke:#000;}.cls-10,.cls-2,.cls-3,.cls-4,.cls-5,.cls-6,.cls-7,.cls-9{stroke-miterlimit:10;}.cls-2,.cls-3,.cls-4,.cls-5,.cls-9{stroke-width:2.3px;}.cls-3{fill:#d1d3d4;}.cls-4,.cls-9{fill:#fff;}.cls-10,.cls-6{stroke-width:0.8px;}.cls-7{stroke-width:0.5px;}.cls-11,.cls-8{isolation:isolate;font-size:15px;font-family:ArialMT, Arial;}.cls-10,.cls-9{stroke:#a7a9ac;}.cls-11{fill:#808285;}.cls-12{letter-spacing:-0.04em;}</style></defs><rect class="cls-1" y="17.24" width="55.6" height="32.4"/><path class="cls-2" d="M58.5,255.9s6.1-2.1,10.1-3.1,39.6-1.8,45.3-1.1,5.6,1.5,7.7,2.4,5.3,0,4,3.6-12.6,13-22.7,14.5-31.6,1.7-37.9-3.1C58.7,264.5,58.5,255.9,58.5,255.9Z" transform="translate(92.8 0.34)"/><path class="cls-3" d="M77.3,314.8c.4.4.7,4.2,4,9.4s27.7,13.2,34.9,14.6,10.5,2.3,15.7-1.2,6-2.6,10.7-8.9,3.9-8.5,8.3-12.8,4.6-4.3,8.3-6.2,2.9-3.9,8.4-3.7,9.8-1,11.7.7,4.5,3.6,6.7,2.5,2.3-5.2-.9-7.6-6.4-6.3-10.5-7.4-8.5-2.7-14.7.2-8.5,3.4-15.8,8.3c0,0-7.2,3.6-12.7,4.6s-11.8-13.1-16.5-16.5-14.8-2.6-16.1-2.3C97.6,289,77.3,314.8,77.3,314.8Z" transform="translate(92.8 0.34)"/><path class="cls-4" d="M67.7,238.7c-.5-.7-3.9-2.4-4-4.6s-.9-2.7-1.7-5-1.7-4.7-1.1-6.5,1.6-4.1,3-7a50,50,0,0,0,3.4-8c.7-2.3.6-3.6,1.8-5.7a15.83,15.83,0,0,1,3.1-4.2c.7-.5,4.9-2.8,4.9-2.8l-1.9-3.7c-.4-3.3-1.4-2-.9-7.6s1.6-7.8,3.1-10.3,1.3-4.4,5.3-5.6,8.1-.4,10.8,2.4,3.7,3,4.1,7.1,1.2,4.3.6,6.8-.3,3.6-1.5,5.6-2.1,3.6-2.1,3.6.9,3,5.2,2.8a41.72,41.72,0,0,1,7.1.2s.5-1,2.3.9,2.9,2.9,3,4.7.2,3.3,2.2,4.7,2.4,2.7,5.1,5.9,3.9,2.6,5.1,6.6,2.8,6.2,1.6,7.5-.8,2.1-4.1,4.7a50,50,0,0,1-6.4,4.9c-2.7,1.6-7.2,2.9-7.9,3.9s-1.8.3-.6,4.1.6,2.8,1.5,5.8,1.9,7.3,1.9,7.3l.4,8.1s-28.5,2.8-34.7,1.6-13.1-3.7-12.4-4.5,3.9-3,7.1-6.4,4.9-4.3,6.5-7.1,1.6-3.9,1.4-7.2.1-3-.8-7.3-1.7-3.2-2.1-7.8a43.09,43.09,0,0,0-2.5-9.5,11.71,11.71,0,0,1-3.1,4.7c-2.2,1.9-1.4,3.1-1.3,4.4s1.5.4,2.9,2.1,3.2,2.6,2.2,4.2-2.2,1.1-2.4,2.6.6,2.5-.6,3.3C70,239.4,67.7,238.7,67.7,238.7Z" transform="translate(92.8 0.34)"/><path class="cls-5" d="M105.9,231.6c1-1.3,11-8.1,10-8.3s-6.6-6.5-6.8-5.5.9,2.7,0,4.6S105.9,231.6,105.9,231.6Z" transform="translate(92.8 0.34)"/><path class="cls-3" d="M56.8,256.4c1.2-.6,1.1-1.3,5.4,1.3s4.3,4.4,11.7,5.8,9.8,2.8,18.8.9,9.5-2.2,14.6-3.2,2.1,1.2,6.3-.3,3.1-.4,6.4-1.8,4.5-4.3,5.6-1.3,3.5,3.4,3.7,9.5.6,8.3-.2,12.7-.6,2.9-.8,9.8,1.8,6.6-2.1,10.6-5.7,2.8-5.7,7.6-1.4,1.8.1,8.1,2.4,2.7,1.6,8,.2,4.8-2.9,8.8-3.2,2.7-4.8,5.3-4,1.5-2.3,5.4,2.4,2.9,1.8,6.5-.6,4.3-3.8,5.2a46.35,46.35,0,0,1-8.3,1.1s-6.3.8-8,2.9-3.1-2.1-2.7-3.9-.9-2.5-2.1-2.2a14.9,14.9,0,0,0-3.7,1.7c-1.5.8-3,.1-5.8,1.5s-5.2,3.3-5.3.5-.2-4.3.5-5.3-6,1.3-7.5,2.9-5.3.2-3.7-2.4,3.3-5.7,5.3-6.6,4.7-2,4.9-2.8c0,0,2.8-4.7,4.6-4.3s4.3.8,5.3-.5,2.5-1.6,2.3-4.7-.1-8.4-.9-9.3-1.7-4.7-3.8-5.9-3.7-2.4-6.9-6.5-2.7-2.9-3.2-4.2-1.7-4-1.7-4a10.38,10.38,0,0,1-5,1.2,41.76,41.76,0,0,1-6.6-.2,35.4,35.4,0,0,0-4.9,3.5c-2.9,2.4-4.7,3.3-5.6,5.6s-1.1,3.9-2,5.2-3.7,2.5-3.9,3.7,1,.5,2.9,2.4a4,4,0,0,1,1.4,3.7s3.3,1.1,3.9,2.9a20.37,20.37,0,0,1,.5,5.3s-2.5-4.2-5-3.8-3.2,1.2-5.3.5-4.2-2.6-5.2-2.8-.4,2-4.6,0-8-2.9-10.2-6.4-3.7-3.9-4.7-8.7a74.43,74.43,0,0,1-1.4-7.8c-.4-3-1.9-3.2-2.8-6.5s-1-4.3-.5-6.1-.8-5.5-3.3-5.2,3.6-4.7,6.3-1.6,3.3,4.7,3.6,6.4,2.4,3.2,2.4,3.2,1.9-2.6,1.3-4.9a17,17,0,0,1-.5-4.5s1.3-.1,3.4,1.4,2.7,5.4,4.2,4.1c3.9-3.2,4-1.4,4.9-4.8s.3-4.8,1-6.9,1.1-4.1,2.6-5.2,2.5-1.6,3.4-2.4,1.2-1.8,1.1-4.4-.7-3.3.5-5.9,2.1-3.4,4.1-5.5,4.2-2.5,5.9-3.1A26.94,26.94,0,0,1,56.8,256.4Z" transform="translate(92.8 0.34)"/><path class="cls-6" d="M72.3,283.5c1.1,3.2-.3,6.7-1.5,9.9s-2.2,6.9-.5,9.9" transform="translate(92.8 0.34)"/><path class="cls-6" d="M67,295c.2,2.8-1.5,5.9,0,8.3" transform="translate(92.8 0.34)"/><path class="cls-6" d="M63.8,297.7a35.17,35.17,0,0,0,.4,5.6" transform="translate(92.8 0.34)"/><path class="cls-6" d="M60.6,299.1a3.22,3.22,0,0,0,1.7,3.4" transform="translate(92.8 0.34)"/><path class="cls-6" d="M69.8,290.8a10.38,10.38,0,0,1-.5,4.6" transform="translate(92.8 0.34)"/><path class="cls-6" d="M41.2,321.9a4.54,4.54,0,0,1-1.4-4.9c.8-2.2,3.2-3.4,4.7-5.3a7,7,0,0,0,.2-7.7c-3.2.5-6.6,1.1-8.9,3.4-.6.7-1.4,1.6-2.3,1.4s-1.2-1.2-1.4-2c-.5-1.7-.9-3.5-1.4-5.2a10.83,10.83,0,0,0-1.1-3,6,6,0,0,0-2.1-2.1" transform="translate(92.8 0.34)"/><path class="cls-6" d="M23,297.6a5.53,5.53,0,0,0-1.8,4c0,.3,0,.6-.2.7-.2.3-.7.2-1,0a4.62,4.62,0,0,1-2.7-3.5" transform="translate(92.8 0.34)"/><path class="cls-6" d="M44.2,315.9a42.88,42.88,0,0,0,5.7-9.4,13.31,13.31,0,0,1,2.7-4.6c1.7-1.7,4.3-2.3,5.9-4.2a5.53,5.53,0,0,0,.8-5.9" transform="translate(92.8 0.34)"/><path class="cls-6" d="M54.3,294.6a13.48,13.48,0,0,1-5.6,5.5" transform="translate(92.8 0.34)"/><path class="cls-6" d="M53.8,304.8a6.1,6.1,0,0,0,2.8-4" transform="translate(92.8 0.34)"/><path class="cls-6" d="M54.5,298.1a11.26,11.26,0,0,0,2.4-4.9" transform="translate(92.8 0.34)"/><path class="cls-6" d="M46.3,296.5a26.74,26.74,0,0,0,6.4-7" transform="translate(92.8 0.34)"/><path class="cls-6" d="M55.5,290.1a6.3,6.3,0,0,1,5.1-2.6" transform="translate(92.8 0.34)"/><path class="cls-6" d="M57.7,291.7c.4-1.2,2-1.6,3.2-1.9s2.8-1,2.7-2.3" transform="translate(92.8 0.34)"/><path class="cls-6" d="M60.7,283.2c-.5,1.2-2.3,2.3-4.5,2.9" transform="translate(92.8 0.34)"/><path class="cls-6" d="M53.1,286a6.14,6.14,0,0,1-2.9,1.9" transform="translate(92.8 0.34)"/><path class="cls-6" d="M44.6,293.5a10.54,10.54,0,0,0-2.4,4.4" transform="translate(92.8 0.34)"/><path class="cls-6" d="M35.4,281a5.11,5.11,0,0,0,2.4,3.8,7.49,7.49,0,0,0,5.7.4" transform="translate(92.8 0.34)"/><path class="cls-6" d="M46.1,269.6a11.75,11.75,0,0,0,.3,3.8,6.36,6.36,0,0,1,3.3-.7" transform="translate(92.8 0.34)"/><path class="cls-6" d="M42.1,269.5a6.48,6.48,0,0,1,.2,2c.1,1.1.7,2.8,2.1,1.9.9-.6,0-3.8.1-4.8" transform="translate(92.8 0.34)"/><path class="cls-6" d="M38.8,278.3c.1-.3-.5-.1-.6.2a8.14,8.14,0,0,0-.4,4.1c.1,1,.9,2.3,1.8,2" transform="translate(92.8 0.34)"/><path class="cls-6" d="M40.7,279.2a7.21,7.21,0,0,0,.4,4.8h.8" transform="translate(92.8 0.34)"/><path class="cls-6" d="M43,280.6a2.78,2.78,0,0,0,.8,2.1" transform="translate(92.8 0.34)"/><path class="cls-6" d="M83.1,291.8A63.94,63.94,0,0,0,84.6,314a25.32,25.32,0,0,1,1.1,6.6" transform="translate(92.8 0.34)"/><path class="cls-6" d="M75.1,302.7a13.78,13.78,0,0,0,4.8,10.7c.2.2.8.1.6-.1" transform="translate(92.8 0.34)"/><path class="cls-6" d="M78.5,301.6a18,18,0,0,0,4.2,12.8" transform="translate(92.8 0.34)"/><path class="cls-6" d="M80.1,301.3l1.9,2.2" transform="translate(92.8 0.34)"/><path class="cls-6" d="M81,297.9a2.35,2.35,0,0,0,.8.2" transform="translate(92.8 0.34)"/><path class="cls-6" d="M125,268.8a19.64,19.64,0,0,1-8.4,14.6" transform="translate(92.8 0.34)"/><path class="cls-6" d="M126.4,272.6a32.11,32.11,0,0,1-5.8,11.7" transform="translate(92.8 0.34)"/><path class="cls-6" d="M122.1,265.3a18.91,18.91,0,0,1-4.6,9.4" transform="translate(92.8 0.34)"/><path class="cls-6" d="M125.3,285.9a58.71,58.71,0,0,1-3.9,5.8" transform="translate(92.8 0.34)"/><path class="cls-6" d="M124.8,291.6a10.71,10.71,0,0,1-4.2,6.2" transform="translate(92.8 0.34)"/><path class="cls-6" d="M123.4,299a3.71,3.71,0,0,1-2.9,2.5" transform="translate(92.8 0.34)"/><path class="cls-6" d="M121.6,286.7c-.4.4-.8.7-1.2,1.1" transform="translate(92.8 0.34)"/><path class="cls-6" d="M117,303.4a33.39,33.39,0,0,0-2.2,12.9c.1,3.5.7,7-.6,10.3" transform="translate(92.8 0.34)"/><path class="cls-6" d="M118,311.2a27.22,27.22,0,0,0-.3,7,58.07,58.07,0,0,1,.5,7.2,8.56,8.56,0,0,1-2.9,6.4" transform="translate(92.8 0.34)"/><path class="cls-6" d="M113,332.9a13,13,0,0,1-3.8,6.6" transform="translate(92.8 0.34)"/><path class="cls-6" d="M101.5,345.9a3.5,3.5,0,0,0-1.7,2.5,20.87,20.87,0,0,0-.7,7h1" transform="translate(92.8 0.34)"/><path class="cls-6" d="M103.2,346.5c-.3,2-.5,3.9-.8,5.9a4.3,4.3,0,0,0,0,1.6,1.11,1.11,0,0,0,1.3.8,3,3,0,0,1,.4-1" transform="translate(92.8 0.34)"/><path class="cls-6" d="M105.9,351.5v-4.8c.2,1.4,1.4,2.3,1.2,3.8" transform="translate(92.8 0.34)"/><path class="cls-6" d="M91.3,304.8a11.25,11.25,0,0,0,1.6,6.5" transform="translate(92.8 0.34)"/><path class="cls-6" d="M96.7,303.5a7.33,7.33,0,0,0,1.2,3.2" transform="translate(92.8 0.34)"/><path class="cls-6" d="M101.6,309.9a7.73,7.73,0,0,1-1.2,5.9" transform="translate(92.8 0.34)"/><path class="cls-6" d="M94.6,326a13.5,13.5,0,0,1-1.5,2.6" transform="translate(92.8 0.34)"/><path class="cls-6" d="M75,350.8a15.9,15.9,0,0,1,7.9-6.8c1.7-.6,3.5-1,4.9-2.1" transform="translate(92.8 0.34)"/><path class="cls-6" d="M91.6,353.7a3.54,3.54,0,0,1,.2-3A15.67,15.67,0,0,1,96,345" transform="translate(92.8 0.34)"/><path class="cls-6" d="M70.9,346.8a4.06,4.06,0,0,1,2.7,4.4" transform="translate(92.8 0.34)"/><path class="cls-6" d="M105.1,276c.2.1.2.5.1.8a14.15,14.15,0,0,1-2.8,5.1" transform="translate(92.8 0.34)"/><path class="cls-6" d="M110.2,276.3a19.93,19.93,0,0,1-1.5,4.9" transform="translate(92.8 0.34)"/><path class="cls-6" d="M102.4,225.2a9.24,9.24,0,0,1,4.6-8.6.37.37,0,0,1,.3-.1c.2,0,.3.2.4.3a10.59,10.59,0,0,0,1,1.2" transform="translate(92.8 0.34)"/><path class="cls-6" d="M94.8,221.7c.4.5,1.1.3,1.7.1s1.4,0,1.4.6" transform="translate(92.8 0.34)"/><path class="cls-6" d="M76.9,219.1c1.2.3,1.7,1.7,1.7,2.9" transform="translate(92.8 0.34)"/><path class="cls-6" d="M65.8,220.8a6.3,6.3,0,0,1,2.3,3.4" transform="translate(92.8 0.34)"/><path class="cls-6" d="M65.4,228.3a8.91,8.91,0,0,1,4.6-.6" transform="translate(92.8 0.34)"/><path class="cls-6" d="M78.4,194.9a18.6,18.6,0,0,0,2.1,2.8,10,10,0,0,0,2.5,2.1,7.58,7.58,0,0,0,7.9-1,11.57,11.57,0,0,0,4-7.2" transform="translate(92.8 0.34)"/><path class="cls-6" d="M74.7,180a10.9,10.9,0,0,1,5.8-1.7,18.51,18.51,0,0,1,4.7.8,66.76,66.76,0,0,1,12.4,4.1c0,.2-.3.5-.5.3" transform="translate(92.8 0.34)"/><path class="cls-6" d="M88.9,173.9c.5-.9,1.8-.6,2.7,0a14.19,14.19,0,0,1,4.1,4" transform="translate(92.8 0.34)"/><path class="cls-6" d="M84.3,175.4a12.77,12.77,0,0,1,12.6,5.8" transform="translate(92.8 0.34)"/><path class="cls-6" d="M92,171.7a5.18,5.18,0,0,1,3.5,3.1" transform="translate(92.8 0.34)"/><path class="cls-6" d="M85.4,183.2a11,11,0,0,1,5.6,1.3" transform="translate(92.8 0.34)"/><path class="cls-6" d="M75.8,184.1a6,6,0,0,1,4.3-1.2" transform="translate(92.8 0.34)"/><path class="cls-6" d="M86.8,185.8a8.83,8.83,0,0,0,2.8-.2" transform="translate(92.8 0.34)"/><path class="cls-6" d="M76.5,186.5c.8.1,1.7.1,2.5.2" transform="translate(92.8 0.34)"/><path class="cls-6" d="M79.3,192.3a26.62,26.62,0,0,0,8.9-.1c-.7,1.4-1.6,3-3.1,3.3C83.9,195.8,80.1,193.2,79.3,192.3Z" transform="translate(92.8 0.34)"/><path class="cls-6" d="M79.1,197c-.1.1-.1-.2,0-.2s.2.1.2.3c.3,2.1.6,4.2.9,6.2" transform="translate(92.8 0.34)"/><path class="cls-6" d="M95.2,201.3a8.19,8.19,0,0,1,7-.4" transform="translate(92.8 0.34)"/><path class="cls-6" d="M104.1,209.8a4.41,4.41,0,0,0,.9,3.8,15.36,15.36,0,0,0,3.2,2.5" transform="translate(92.8 0.34)"/><path class="cls-6" d="M74.1,214.5a11.32,11.32,0,0,1-.6-8.1" transform="translate(92.8 0.34)"/><path class="cls-6" d="M78.7,246.7c5.5-.1,11-.1,16.5-.1" transform="translate(92.8 0.34)"/><path class="cls-6" d="M98.7,247.1a40,40,0,0,0,7.8-1.6" transform="translate(92.8 0.34)"/><path class="cls-6" d="M106.5,240.7a12.06,12.06,0,0,1-5.6,4.1v-.3" transform="translate(92.8 0.34)"/><path class="cls-6" d="M94.4,234.9a4.75,4.75,0,0,0-3.3,4.9,5.77,5.77,0,0,0,3.3-3.2" transform="translate(92.8 0.34)"/><path class="cls-6" d="M101.1,245.1a9.45,9.45,0,0,1-7,.7,2.73,2.73,0,0,1-1.3-.7,4.79,4.79,0,0,1-.7-2,4.65,4.65,0,0,0-1.3-2.1c.8-.6,1.7-1.1,2.5-1.7a21.26,21.26,0,0,1,5.9-3.2h-1" transform="translate(92.8 0.34)"/><path class="cls-6" d="M97.7,234.8c1.3-.2,2.7,0,4.1-.1a4,4,0,0,0,3.4-1.9" transform="translate(92.8 0.34)"/><line class="cls-5" x1="191" y1="263.54" x2="190" y2="246.54"/><path class="cls-5" d="M97,237c-.3-1.4,7.5-40.8,7.5-40.8" transform="translate(92.8 0.34)"/><line class="cls-5" x1="167" y1="196.84" x2="163.2" y2="227.54"/><line class="cls-5" x1="160.5" y1="239.04" x2="156.6" y2="259.04"/><line class="cls-5" x1="204.5" y1="238.54" x2="210.6" y2="252.84"/><line class="cls-7" x1="144.7" y1="225.34" x2="151.1" y2="225.34"/><text class="cls-8" transform="translate(105.42 229.78)">Actor</text><path class="cls-9" d="M209,336.8a24.65,24.65,0,0,1-5.6,5c-2.1,1.2-6.6,4.1-7.2,9.1s-.4,6.7,3.4,7.6,12.7,3.5,21.5,1.2,11.1-4.4,13.5-8.6,1.6-10.7,1-11.1C235.1,339.4,209,336.8,209,336.8Z" transform="translate(92.8 0.34)"/><path class="cls-9" d="M255.3,340.4a44.92,44.92,0,0,0,.6,9.2c.6,2.9,0,8.1,4,9.7s10.5,2.8,18.6,1.6,11.7-3.2,12.5-5.1.9-3.7-1-8.2-6.7-10-6.7-10Z" transform="translate(92.8 0.34)"/><path class="cls-9" d="M301.9,267.6c-1.9-4.6-7.9-10.5-12.8-14.5-.2-2-.3-3.4-.4-3.9-.1-2.8-1.8-13.8-1.8-13.8l-89.2,7-.7,3.4s-13.3,1.8-22.1,6.7-10.7,10.3-11.4,15.7,6.4,6.6,11.7,6.2,18.8-2.5,18.8-2.5-.3,7.2-.9,12.5-2.9,25.8-.4,35a28.63,28.63,0,0,0,13.5,17.9c5.7,3.4,14.8,4.4,27.1,4.5s20.2,1,30.9.4,17.1-1.8,20.9-4.2,8.9-9.5,10.7-19.3-.7-18.6-1.3-22-2.2-15.5-2.2-15.5v-.4a19.63,19.63,0,0,0,7.2.2C304.2,280.2,304.6,274.5,301.9,267.6Z" transform="translate(92.8 0.34)"/><path class="cls-10" d="M203.4,248.6c1.2,1.2,3.2,4.8,1.8,11.4s-5.1,12.2-11.3,11.9" transform="translate(92.8 0.34)"/><path class="cls-10" d="M274.3,247.1c-3.2,1.3-6.9,8.9-6.2,16.7s8.1,11.1,14.1,13.8,12.3,4.1,17.1,3.4,5.3-6.4,2.5-13.3S287,251,283,249.1,277.1,245.9,274.3,247.1Z" transform="translate(92.8 0.34)"/><path class="cls-9" d="M215.4,164.2s-8.8-15.1-16.8-24.2-19.8-17.7-22.6-19-3.2,1.6-3.2,2.9.7,16.7,3.5,27.4,11.1,29.6,16.4,35.5c0,0-5.4,11.6-6.4,23.4s1.8,23.9,7.2,29.2,18.8,8.2,26.1,9.4,17.4,2.9,23.6,1.9,21.2-3.2,27.5-3.8a22.65,22.65,0,0,0,16.4-9.2c4-5.6,6.7-14.7,7.3-24s-2.6-22.3-6-26.2c0,0,7.6-11.9,11.6-19.5s8.1-15.4,10.3-26.5,3.2-16.8,3.2-19.3-1.9-3.4-3.4-2.3-17,10.5-21.4,14.5a177.12,177.12,0,0,0-17.6,20.1,105.55,105.55,0,0,0-5.9,9.4s-8.5-3.4-22.9-4.1A70.54,70.54,0,0,0,215.4,164.2Z" transform="translate(92.8 0.34)"/><path class="cls-10" d="M313.4,122c0-2.5-1.9-3.4-3.4-2.3-1.3.9-12.9,8-18.9,12.5,3.1,1,7.1,3.4,10.3,8.7a44.49,44.49,0,0,1,5,13.4,71.42,71.42,0,0,0,3.8-13C312.4,130.2,313.4,124.5,313.4,122Z" transform="translate(92.8 0.34)"/><path class="cls-10" d="M176,121c-2.8-1.3-3.2,1.6-3.2,2.9s.7,16.7,3.5,27.4c.1.5.3,1,.4,1.6,1.1-5.6,3.2-11.5,7.8-15.2a15.11,15.11,0,0,1,8.7-3.2C186,127.6,178.2,122,176,121Z" transform="translate(92.8 0.34)"/><path class="cls-10" d="M287.9,187.2c-2.2-1.5-7.6-7-10.4-10.8a106.19,106.19,0,0,0-8.2-9.2" transform="translate(92.8 0.34)"/><path class="cls-10" d="M212.8,206.4c2-8.5-4.2-10.8-7.8-9.2s-6.9,8.1-5.3,13.6S210.7,214.9,212.8,206.4Z" transform="translate(92.8 0.34)"/><path class="cls-10" d="M267,198.9c-4.8-4.2-11.3-3.4-13.6,1s-1.3,12.4,7.9,13.5C269.8,214.4,271.5,202.9,267,198.9Z" transform="translate(92.8 0.34)"/><path class="cls-10" d="M230.4,216.9c-1.9-1-2.6-2.5.1-2.9s4.5.7,3.7,1.5S232.1,217.8,230.4,216.9Z" transform="translate(92.8 0.34)"/><path class="cls-10" d="M215.1,213.7c2.9-2.2,10.7-5,18.9-4.5s17.4,5.3,17.4,5.3" transform="translate(92.8 0.34)"/><path class="cls-10" d="M222,225s6.9-1.8,8.1-2.2a8.63,8.63,0,0,1,5.4,0c2.8.7,7.3,2.1,7.8,2.3s-.9,5.9-2.6,8.8-6.4,6.6-7.9,6.7-6.3-5.1-8.1-7.8S220.1,226.6,222,225Z" transform="translate(92.8 0.34)"/><path class="cls-10" d="M197.4,221.5c-1.9-5.1-6.3-5.9-8.4-3.8s-1,9.2.6,13.6a17.51,17.51,0,0,0,7.9,9.4c3.1,1.6,5.7,2.8,5.1-1.5S197.4,221.5,197.4,221.5Z" transform="translate(92.8 0.34)"/><path class="cls-10" d="M266.7,233.8c.3-6,4.1-14.7,8.9-17s10.4,0,11.3,5.9-2.5,13.3-6.7,16.3-10.7,2.8-12,1.9S266.6,236.5,266.7,233.8Z" transform="translate(92.8 0.34)"/><path class="cls-10" d="M277.1,244.8s9.5,2.6,11.9,8.3" transform="translate(92.8 0.34)"/><path class="cls-10" d="M280.5,243.4s6.1,1.1,8.2,5.7" transform="translate(92.8 0.34)"/><path class="cls-10" d="M265.8,254.8c-.3,5,.7,8.7,4,13.7" transform="translate(92.8 0.34)"/><path class="cls-10" d="M272.4,254.8a16.17,16.17,0,0,0-2,11" transform="translate(92.8 0.34)"/><path class="cls-10" d="M273.1,260.5c-.7,2.7-1.7,6.7-.3,9.4" transform="translate(92.8 0.34)"/><path class="cls-10" d="M274.8,264.8c-.7,1.7-1.7,6,.3,7.4" transform="translate(92.8 0.34)"/><path class="cls-10" d="M201.2,254.1c.7,1.7,1,6.4-1.3,11s-3.7,4-3.7,4" transform="translate(92.8 0.34)"/><path class="cls-10" d="M198.6,258.8s-1,6.4-5.3,10.4" transform="translate(92.8 0.34)"/><path class="cls-10" d="M193.9,262.1a14.56,14.56,0,0,1-3.7,7" transform="translate(92.8 0.34)"/><path class="cls-10" d="M273.8,277.9c2.7,3.3,6.4,4.3,10.7,5.3" transform="translate(92.8 0.34)"/><path class="cls-10" d="M278.5,286.6a12.32,12.32,0,0,0,7.7,1.3" transform="translate(92.8 0.34)"/><path class="cls-10" d="M281.1,293.6a6.08,6.08,0,0,0,5.7,1" transform="translate(92.8 0.34)"/><path class="cls-10" d="M282.5,298.6c2,1.7,4,2.3,5.7,2" transform="translate(92.8 0.34)"/><path class="cls-10" d="M289.8,306.9s2.7,18.1-10.7,28.1" transform="translate(92.8 0.34)"/><path class="cls-10" d="M285.8,318s-2.3,11-11,17" transform="translate(92.8 0.34)"/><path class="cls-10" d="M277.1,325.7s-1,4.7-6.4,8.4" transform="translate(92.8 0.34)"/><path class="cls-10" d="M208.9,261.5s-.3,8-11,13.7" transform="translate(92.8 0.34)"/><path class="cls-10" d="M208.6,271.5a19.74,19.74,0,0,1-10,7" transform="translate(92.8 0.34)"/><path class="cls-10" d="M220.6,210s12.4-5.7,25.4-.7" transform="translate(92.8 0.34)"/><path class="cls-10" d="M270.4,172.9s2.7,2.7,5,5.3,10,9,10,9" transform="translate(92.8 0.34)"/><path class="cls-10" d="M277.1,169.9s3.7,6.4,5.3,8.7a25.87,25.87,0,0,0,5.3,4.7" transform="translate(92.8 0.34)"/><line class="cls-10" x1="376.3" y1="174.94" x2="381" y2="179.54"/><line class="cls-10" x1="379.9" y1="174.24" x2="383.6" y2="176.24"/><line class="cls-10" x1="382.6" y1="171.54" x2="386.6" y2="170.84"/><path class="cls-10" d="M181.5,151.8c-.3,1.3.3,7.4,1.3,10s6.7,12.7,6.7,12.7" transform="translate(92.8 0.34)"/><line class="cls-10" x1="285" y1="172.94" x2="283.7" y2="177.94"/><path class="cls-10" d="M201.2,168.5c-3.7,2.3-8.4,11.7-8.4,11.7" transform="translate(92.8 0.34)"/><path class="cls-10" d="M205.6,173.2s-8.7,8-12.9,13.5c0,0,6.9-13,17.1-19.5" transform="translate(92.8 0.34)"/><path class="cls-10" d="M208.6,341c.7,1,8.4,3,17,3s6.7-1,6.7-1" transform="translate(92.8 0.34)"/><path class="cls-10" d="M210.9,344.4s11.4,2.7,20.7.7" transform="translate(92.8 0.34)"/><path class="cls-10" d="M214.6,349.1s9.7,1.7,16.7-1" transform="translate(92.8 0.34)"/><path class="cls-10" d="M215.3,353.1a29.31,29.31,0,0,0,14-1.3" transform="translate(92.8 0.34)"/><path class="cls-10" d="M258.7,345.1s12,.3,21.1-2.7" transform="translate(92.8 0.34)"/><path class="cls-10" d="M258.4,347.1c1,0,6.4,1.3,12.7,0" transform="translate(92.8 0.34)"/><path class="cls-10" d="M259.4,348.7s4.3,2,8,1.3" transform="translate(92.8 0.34)"/><path class="cls-10" d="M260.1,351.7a19.4,19.4,0,0,0,6.4,1.7" transform="translate(92.8 0.34)"/><rect class="cls-1" x="264.9" y="7.24" width="137.5" height="147.6"/><text class="cls-11" transform="translate(252.8 20.07)"><tspan xml:space="preserve"> Hoy en día, la mayoría </tspan></text><text class="cls-11" transform="translate(272.96 37.95)">de los trajes están </text><text class="cls-11" transform="translate(267.87 55.54)">hechos de algodón, </text><text class="cls-11" transform="translate(264.54 73.95)">poliespuma, plástico </text><text class="cls-11" transform="translate(269.1 91.74)">y otros materiales. </text><text class="cls-11" transform="translate(266.94 108.52)">Reduciendo el peso </text><text class="cls-11" transform="translate(292.48 126.52)">a unos 8kg</text><g id="animacion"><path class="cls-6" d="M47.5,55.2A6.9,6.9,0,0,1,52.2,50" transform="translate(92.8 0.34)"/><path class="cls-6" d="M51.7,46.7a8.39,8.39,0,0,1,4.4-1" transform="translate(92.8 0.34)"/><path class="cls-6" d="M63,49.2A6.9,6.9,0,0,1,65.4,51" transform="translate(92.8 0.34)"/><path class="cls-6" d="M68.6,54.9a7.1,7.1,0,0,1,2.7,3" transform="translate(92.8 0.34)"/><path class="cls-6" d="M118.7,163.2c-.9.6-1.7,1.3-2.6,1.9" transform="translate(92.8 0.34)"/><path class="cls-6" d="M111.8,160.2a7.06,7.06,0,0,1-4.1,4.8" transform="translate(92.8 0.34)"/><path class="cls-6" d="M105.9,168.9c-.6.3-1.2.5-1.8.8" transform="translate(92.8 0.34)"/><path class="cls-6" d="M103.2,163.4a5.3,5.3,0,0,1,2.4-2.9" transform="translate(92.8 0.34)"/><path class="cls-6" d="M111,167.6a1.79,1.79,0,0,0,2-1.5" transform="translate(92.8 0.34)"/><path class="cls-6" d="M114.9,158.9l1.2-.6-1.2.3" transform="translate(92.8 0.34)"/><path class="cls-3" d="M128.1,136.6a18.42,18.42,0,0,0,1.2-7.6,37.37,37.37,0,0,0-1.9-8.3c-1.1-3.3.8-5-4.4-9.1a105,105,0,0,1-8.7-7.3,70.59,70.59,0,0,1-7.4-7.3c-4.2-4.6-6.2-4.7-9.6-8.8a47.72,47.72,0,0,1-7.6-13c-1.5-4-8.6-12.2-10.9-14.8s-4.3-5.5-5.2-6.6-.7-1.4-1.1-3.3-1.9-1.9-3.5-1.9-13.9-5.4-17.6-4.7-6,3.1-8.2,5.4-4.4,2.7-5.3,5.9.1,3.8,1.9,5.4,1.7,1.8.6,3.6-1.6,0-2.3,3.2-.3,3.3-.9,4.5-2-.3-1.5,2.7.1,4,2.4,4.6,3.2.9,4.4.4-.7.3,3.3-1.3,7.7-5.1,5.5-1.2-2.7,4.7-3.8,5.9-2.3.8-3.1,2.7-2.4,2.3.3,2.7a16.28,16.28,0,0,0,4.5,0c1.4,0,.6.3,2.5-.3s1.6-.2,3.1-1.1,2.1-3.3,2.9-1.3.6.5,1.8,4.1,2.7,4.6,2.7,6.7-1.1,4.8-2.1,7a59.69,59.69,0,0,0-2.7,7.6c-.9,3-.8,4.1-3.4,4.8s-7.3,2.9-9.2,4.8a56.85,56.85,0,0,1-6.1,5.1c-2,1.5-6.8,3.9-8.2,3.9s-3.1,1.5-6.5.4-6.2-1.8-8.5-1.3-7,2.3-8.1,3.5-2.6,2.2-3.2,4.3-.5,3.5-1,5,3.5-2.6,3.4-1.7-2.2,3-2.1,5,3.6-3.2,3.2-1.8c-.2.8-.9,2-1.4,3.2.8-.6,2.2-1.1,4.7-1.3,8.6-.7,8.3-.3,11.8.2s2.5.8,6.6.6a36.31,36.31,0,0,0,7.7-1.1c3-.7,4.9.1,7.3-.9s4.5,0,5.7-1.7,2-2.2,2.8-.1-.5,4.8-.6,6.8,1.2,3.5.6,6.3a21.75,21.75,0,0,0-.5,5H53a6.6,6.6,0,0,0-.6,2.7c0,8.6,16.4,15.5,36.5,15.5,17.1,0,31.5-5,35.4-11.7l1.4.1a17.22,17.22,0,0,1-.4-2.8,4.1,4.1,0,0,0,.1-1.1,9.85,9.85,0,0,0-.2-1.7,16.28,16.28,0,0,1,.3-3.1c.8-4.1,1.3-4,2.1-8.1a30,30,0,0,0,.6-8.4C128.2,139.2,127.4,138.6,128.1,136.6Z" transform="translate(92.8 0.34)"/><path class="cls-6" d="M55.2,58.7a7.08,7.08,0,0,0-3.4,4,2,2,0,0,0,.2,2c.7.7,1.8.3,2.6-.2S54.3,59.4,55.2,58.7Z" transform="translate(92.8 0.34)"/><path class="cls-6" d="M125.4,136.8c-2.2,0-3.4,2.6-4.4,4.6a17,17,0,0,1-9.2,8.5c-1.3.5-2.8,1-3.5,2.1-.6.9-.6,2.1-1,3a6.19,6.19,0,0,1-2.5,2.3,31.89,31.89,0,0,1-13.7,4.3" transform="translate(92.8 0.34)"/><path class="cls-6" d="M104.5,125.2a38,38,0,0,1-7.6,9.7,17.46,17.46,0,0,1-11.3,4.5,7.94,7.94,0,0,0-2.2.1c-3.2.8-3.8,5.7-7,6.5a10.89,10.89,0,0,1-3.6-.1c-4.2-.1-7.6,3.3-10.3,6.5a35.76,35.76,0,0,0,7.3-1.1,8.64,8.64,0,0,0-3.5,9.8,15,15,0,0,1,6.8-5.1c-1.9,3.1-3.9,7-2.1,10.1a9.94,9.94,0,0,1,7.2-6.7,9.77,9.77,0,0,0,.2,9.1,6.83,6.83,0,0,1,8.5-5.5" transform="translate(92.8 0.34)"/><path class="cls-6" d="M117.6,136.1A10.45,10.45,0,0,1,111,142" transform="translate(92.8 0.34)"/><path class="cls-6" d="M107.1,142.2a8.55,8.55,0,0,1-4.2,3.3" transform="translate(92.8 0.34)"/><path class="cls-6" d="M95.2,155.4a10.12,10.12,0,0,0,6.2-3.4" transform="translate(92.8 0.34)"/><path class="cls-6" d="M106.8,148l.9-.9a7.64,7.64,0,0,0-.9.9" transform="translate(92.8 0.34)"/><path class="cls-6" d="M121.2,149.8a9.52,9.52,0,0,1-6,6.2" transform="translate(92.8 0.34)"/><path class="cls-6" d="M118.5,149.5a8.88,8.88,0,0,1-5.7,3" transform="translate(92.8 0.34)"/><path class="cls-6" d="M119.6,156.9a7.89,7.89,0,0,0-2.1,2.7" transform="translate(92.8 0.34)"/><path class="cls-6" d="M120.6,161.8a4.71,4.71,0,0,0,1.7-4.3" transform="translate(92.8 0.34)"/><path class="cls-6" d="M106.4,114.6a3,3,0,0,1-1.1,3.3" transform="translate(92.8 0.34)"/><path class="cls-6" d="M70.7,81.2a9.87,9.87,0,0,1,3.6,4.9,58.73,58.73,0,0,1,1.6,6A64.52,64.52,0,0,0,78,98.3c.5,1.3,1.1,2.8,2.5,3.3" transform="translate(92.8 0.34)"/><path class="cls-6" d="M57.9,84.5a11.24,11.24,0,0,0,6.9-6.9" transform="translate(92.8 0.34)"/><path class="cls-6" d="M63.3,89.4a10.26,10.26,0,0,0,9.4-3.7" transform="translate(92.8 0.34)"/><path class="cls-6" d="M63.4,97.1a12.34,12.34,0,0,0,5.9,1.8c1.2,0,2.7-.4,2.8-1.6" transform="translate(92.8 0.34)"/><path class="cls-6" d="M53.7,139a31,31,0,0,1,.8-8.6,12.4,12.4,0,0,1,4.6-7.2" transform="translate(92.8 0.34)"/><path class="cls-6" d="M68.2,124.2a10.66,10.66,0,0,0,4.6,3.2" transform="translate(92.8 0.34)"/><path class="cls-6" d="M67.1,129.8a7.52,7.52,0,0,0,3.3,3.3" transform="translate(92.8 0.34)"/><path class="cls-6" d="M65.7,136.2a2.09,2.09,0,0,0,1.1,1.5,8.28,8.28,0,0,1-1.1-1.5" transform="translate(92.8 0.34)"/><text class="cls-8" transform="translate(195.34 12.87)"><tspan class="cls-12">T</tspan><tspan x="8.61" y="0">raje</tspan></text><text class="cls-8" transform="translate(184.33 30.87)">de látex</text><text class="cls-8" transform="translate(190.1 48.87)">(Pesa</text><text class="cls-8" transform="translate(194.2 67.04)">hasta</text><text class="cls-8" transform="translate(190.96 84.87)">100kg)</text><path class="cls-7" d="M65.4,44.8S65.1,9.5,96.5,8.1" transform="translate(92.8 0.34)"/></g></svg>