<?xml version="1.0" encoding="utf-8"?>
<!-- Generator: Adobe Illustrator 25.2.0, SVG Export Plug-In . SVG Version: 6.00 Build 0)  -->
<svg version="1.1" id="Layer_1" xmlns="http://www.w3.org/2000/svg" xmlns:xlink="http://www.w3.org/1999/xlink" x="0px" y="0px"
	 viewBox="0 0 407.5 362.9" style="enable-background:new 0 0 407.5 362.9;" xml:space="preserve">
<style type="text/css">
	.st0{fill:none;}
	.st1{fill:#A7A9AC;stroke:#000000;stroke-width:2.3;stroke-miterlimit:10;}
	.st2{fill:#D1D3D4;stroke:#000000;stroke-width:2.3;stroke-miterlimit:10;}
	.st3{fill:#FFFFFF;stroke:#000000;stroke-width:2.3;stroke-miterlimit:10;}
	.st4{fill:none;stroke:#000000;stroke-width:2.3;stroke-miterlimit:10;}
	.st5{fill:none;stroke:#000000;stroke-width:0.8;stroke-miterlimit:10;}
	.st6{fill:none;stroke:#000000;stroke-width:0.5;stroke-miterlimit:10;}
	.st7{font-family:'ArialMT';}
	.st8{font-size:15px;}
	.st9{fill:#FFFFFF;stroke:#A7A9AC;stroke-width:2.3;stroke-miterlimit:10;}
	.st10{fill:none;stroke:#A7A9AC;stroke-width:0.8;stroke-miterlimit:10;}
	.st11{fill:#808285;}
</style>
<rect y="17.2" class="st0" width="55.6" height="32.4"/>
<path class="st1" d="M112.3,255c0,0,6.1-2.1,10.1-3.1s39.6-1.8,45.3-1.1s5.6,1.5,7.7,2.4c2.1,0.9,5.3,0,4,3.6
	c-1.3,3.6-12.6,13-22.7,14.5c-10.1,1.5-31.6,1.7-37.9-3.1C112.5,263.6,112.3,255,112.3,255z"/>
<path class="st2" d="M131.1,313.9c0.4,0.4,0.7,4.2,4,9.4s27.7,13.2,34.9,14.6c7.2,1.4,10.5,2.3,15.7-1.2c5.2-3.5,6-2.6,10.7-8.9
	s3.9-8.5,8.3-12.8s4.6-4.3,8.3-6.2s2.9-3.9,8.4-3.7s9.8-1,11.7,0.7s4.5,3.6,6.7,2.5s2.3-5.2-0.9-7.6s-6.4-6.3-10.5-7.4
	s-8.5-2.7-14.7,0.2s-8.5,3.4-15.8,8.3c0,0-7.2,3.6-12.7,4.6s-11.8-13.1-16.5-16.5s-14.8-2.6-16.1-2.3
	C151.4,288.1,131.1,313.9,131.1,313.9z"/>
<path class="st3" d="M121.5,237.8c-0.5-0.7-3.9-2.4-4-4.6s-0.9-2.7-1.7-5c-0.8-2.3-1.7-4.7-1.1-6.5c0.6-1.8,1.6-4.1,3-7
	c1.4-2.6,2.5-5.2,3.4-8c0.7-2.3,0.6-3.6,1.8-5.7c0.8-1.6,1.8-3,3.1-4.2c0.7-0.5,4.9-2.8,4.9-2.8l-1.9-3.7c-0.4-3.3-1.4-2-0.9-7.6
	s1.6-7.8,3.1-10.3s1.3-4.4,5.3-5.6s8.1-0.4,10.8,2.4c2.7,2.8,3.7,3,4.1,7.1c0.4,4.1,1.2,4.3,0.6,6.8c-0.6,2.5-0.3,3.6-1.5,5.6
	s-2.1,3.6-2.1,3.6s0.9,3,5.2,2.8c2.4-0.1,4.7-0.1,7.1,0.2c0,0,0.5-1,2.3,0.9s2.9,2.9,3,4.7c0.1,1.8,0.2,3.3,2.2,4.7s2.4,2.7,5.1,5.9
	s3.9,2.6,5.1,6.6s2.8,6.2,1.6,7.5c-1.2,1.3-0.8,2.1-4.1,4.7c-2,1.8-4.1,3.4-6.4,4.9c-2.7,1.6-7.2,2.9-7.9,3.9
	c-0.7,1-1.8,0.3-0.6,4.1c1.2,3.8,0.6,2.8,1.5,5.8c0.9,3,1.9,7.3,1.9,7.3l0.4,8.1c0,0-28.5,2.8-34.7,1.6c-6.2-1.2-13.1-3.7-12.4-4.5
	s3.9-3,7.1-6.4c3.2-3.4,4.9-4.3,6.5-7.1c1.6-2.8,1.6-3.9,1.4-7.2s0.1-3-0.8-7.3c-0.9-4.3-1.7-3.2-2.1-7.8c-0.5-3.3-1.3-6.4-2.5-9.5
	c-0.6,1.8-1.7,3.4-3.1,4.7c-2.2,1.9-1.4,3.1-1.3,4.4s1.5,0.4,2.9,2.1s3.2,2.6,2.2,4.2c-1,1.6-2.2,1.1-2.4,2.6s0.6,2.5-0.6,3.3
	C123.8,238.5,121.5,237.8,121.5,237.8z"/>
<path class="st4" d="M159.7,230.7c1-1.3,11-8.1,10-8.3s-6.6-6.5-6.8-5.5c-0.2,1,0.9,2.7,0,4.6C162,223.4,159.7,230.7,159.7,230.7z"
	/>
<path class="st2" d="M110.6,255.5c1.2-0.6,1.1-1.3,5.4,1.3c4.3,2.6,4.3,4.4,11.7,5.8c7.4,1.4,9.8,2.8,18.8,0.9
	c9-1.9,9.5-2.2,14.6-3.2c5.1-1,2.1,1.2,6.3-0.3c4.2-1.5,3.1-0.4,6.4-1.8s4.5-4.3,5.6-1.3c1.1,3,3.5,3.4,3.7,9.5s0.6,8.3-0.2,12.7
	s-0.6,2.9-0.8,9.8s1.8,6.6-2.1,10.6c-3.9,4-5.7,2.8-5.7,7.6s-1.4,1.8,0.1,8.1s2.4,2.7,1.6,8s0.2,4.8-2.9,8.8c-3.1,4-3.2,2.7-4.8,5.3
	s-4,1.5-2.3,5.4s2.4,2.9,1.8,6.5c-0.6,3.6-0.6,4.3-3.8,5.2c-2.7,0.6-5.5,1-8.3,1.1c0,0-6.3,0.8-8,2.9s-3.1-2.1-2.7-3.9
	c0.4-1.8-0.9-2.5-2.1-2.2c-1.3,0.4-2.6,1-3.7,1.7c-1.5,0.8-3,0.1-5.8,1.5s-5.2,3.3-5.3,0.5s-0.2-4.3,0.5-5.3s-6,1.3-7.5,2.9
	s-5.3,0.2-3.7-2.4s3.3-5.7,5.3-6.6s4.7-2,4.9-2.8c0,0,2.8-4.7,4.6-4.3c1.8,0.4,4.3,0.8,5.3-0.5s2.5-1.6,2.3-4.7s-0.1-8.4-0.9-9.3
	s-1.7-4.7-3.8-5.9s-3.7-2.4-6.9-6.5c-3.2-4.1-2.7-2.9-3.2-4.2s-1.7-4-1.7-4c-1.5,0.8-3.3,1.2-5,1.2c-2.2,0.1-4.4,0-6.6-0.2
	c-1.7,1-3.4,2.2-4.9,3.5c-2.9,2.4-4.7,3.3-5.6,5.6c-0.9,2.3-1.1,3.9-2,5.2s-3.7,2.5-3.9,3.7c-0.2,1.2,1,0.5,2.9,2.4
	c1.1,0.9,1.6,2.3,1.4,3.7c0,0,3.3,1.1,3.9,2.9c0.4,1.7,0.6,3.5,0.5,5.3c0,0-2.5-4.2-5-3.8s-3.2,1.2-5.3,0.5s-4.2-2.6-5.2-2.8
	s-0.4,2-4.6,0s-8-2.9-10.2-6.4c-2.2-3.5-3.7-3.9-4.7-8.7c-0.6-2.6-1.1-5.2-1.4-7.8c-0.4-3-1.9-3.2-2.8-6.5s-1-4.3-0.5-6.1
	s-0.8-5.5-3.3-5.2s3.6-4.7,6.3-1.6c2.7,3.1,3.3,4.7,3.6,6.4s2.4,3.2,2.4,3.2s1.9-2.6,1.3-4.9c-0.4-1.5-0.5-3-0.5-4.5
	c0,0,1.3-0.1,3.4,1.4s2.7,5.4,4.2,4.1c3.9-3.2,4-1.4,4.9-4.8s0.3-4.8,1-6.9c0.7-2.1,1.1-4.1,2.6-5.2s2.5-1.6,3.4-2.4
	s1.2-1.8,1.1-4.4c-0.1-2.6-0.7-3.3,0.5-5.9c1.2-2.6,2.1-3.4,4.1-5.5c2-2.1,4.2-2.5,5.9-3.1C107,254.8,108.8,255,110.6,255.5z"/>
<path class="st5" d="M126.1,282.6c1.1,3.2-0.3,6.7-1.5,9.9s-2.2,6.9-0.5,9.9"/>
<path class="st5" d="M120.8,294.1c0.2,2.8-1.5,5.9,0,8.3"/>
<path class="st5" d="M117.6,296.8c0,1.9,0.1,3.7,0.4,5.6"/>
<path class="st5" d="M114.4,298.2c-0.2,1.4,0.5,2.8,1.7,3.4"/>
<path class="st5" d="M123.6,289.9c0.2,1.6,0,3.1-0.5,4.6"/>
<path class="st5" d="M95,321c-1.4-1.2-2-3.1-1.4-4.9c0.8-2.2,3.2-3.4,4.7-5.3c1.6-2.3,1.7-5.3,0.2-7.7c-3.2,0.5-6.6,1.1-8.9,3.4
	c-0.6,0.7-1.4,1.6-2.3,1.4c-0.9-0.2-1.2-1.2-1.4-2c-0.5-1.7-0.9-3.5-1.4-5.2c-0.2-1-0.6-2.1-1.1-3c-0.5-0.9-1.2-1.6-2.1-2.1"/>
<path class="st5" d="M76.8,296.7c-1.1,1-1.8,2.5-1.8,4c0,0.3,0,0.6-0.2,0.7c-0.2,0.3-0.7,0.2-1,0c-1.4-0.6-2.5-2-2.7-3.5"/>
<path class="st5" d="M98,315c2.3-2.9,4.2-6,5.7-9.4c0.6-1.7,1.5-3.3,2.7-4.6c1.7-1.7,4.3-2.3,5.9-4.2c1.4-1.6,1.7-3.9,0.8-5.9"/>
<path class="st5" d="M108.1,293.7c-1.3,2.3-3.2,4.3-5.6,5.5"/>
<path class="st5" d="M107.6,303.9c1.4-0.9,2.5-2.3,2.8-4"/>
<path class="st5" d="M108.3,297.2c1.2-1.4,2-3.1,2.4-4.9"/>
<path class="st5" d="M100.1,295.6c2.5-1.9,4.7-4.3,6.4-7"/>
<path class="st5" d="M109.3,289.2c1.2-1.6,3.1-2.6,5.1-2.6"/>
<path class="st5" d="M111.5,290.8c0.4-1.2,2-1.6,3.2-1.9c1.2-0.3,2.8-1,2.7-2.3"/>
<path class="st5" d="M114.5,282.3c-0.5,1.2-2.3,2.3-4.5,2.9"/>
<path class="st5" d="M106.9,285.1c-0.8,0.9-1.8,1.6-2.9,1.9"/>
<path class="st5" d="M98.4,292.6c-1.1,1.3-2,2.8-2.4,4.4"/>
<path class="st5" d="M89.2,280.1c0.2,1.6,1.1,3,2.4,3.8c1.8,0.9,3.8,1,5.7,0.4"/>
<path class="st5" d="M99.9,268.7c-0.1,1.3,0,2.6,0.3,3.8c1-0.5,2.2-0.8,3.3-0.7"/>
<path class="st5" d="M95.9,268.6c0.2,0.7,0.2,1.3,0.2,2c0.1,1.1,0.7,2.8,2.1,1.9c0.9-0.6,0-3.8,0.1-4.8"/>
<path class="st5" d="M92.6,277.4c0.1-0.3-0.5-0.1-0.6,0.2c-0.5,1.3-0.6,2.7-0.4,4.1c0.1,1,0.9,2.3,1.8,2"/>
<path class="st5" d="M94.5,278.3c-0.4,1.6-0.3,3.3,0.4,4.8h0.8"/>
<path class="st5" d="M96.8,279.7c0,0.8,0.2,1.5,0.8,2.1"/>
<path class="st5" d="M136.9,290.9c-0.8,7.4-0.3,14.9,1.5,22.2c0.7,2.1,1,4.4,1.1,6.6"/>
<path class="st5" d="M128.9,301.8c-0.1,4.1,1.7,8,4.8,10.7c0.2,0.2,0.8,0.1,0.6-0.1"/>
<path class="st5" d="M132.3,300.7c-0.3,4.6,1.2,9.2,4.2,12.8"/>
<path class="st5" d="M133.9,300.4l1.9,2.2"/>
<path class="st5" d="M134.8,297c0.3,0.1,0.5,0.2,0.8,0.2"/>
<path class="st5" d="M178.8,267.9c-0.5,5.9-3.5,11.2-8.4,14.6"/>
<path class="st5" d="M180.2,271.7c-1.1,4.3-3.1,8.2-5.8,11.7"/>
<path class="st5" d="M175.9,264.4c-0.6,3.5-2.2,6.8-4.6,9.4"/>
<path class="st5" d="M179.1,285c-1.2,2-2.5,3.9-3.9,5.8"/>
<path class="st5" d="M178.6,290.7c-0.6,2.5-2.1,4.7-4.2,6.2"/>
<path class="st5" d="M177.2,298.1c-0.4,1.3-1.5,2.3-2.9,2.5"/>
<path class="st5" d="M175.4,285.8c-0.4,0.4-0.8,0.7-1.2,1.1"/>
<path class="st5" d="M170.8,302.5c-1.6,4.1-2.3,8.5-2.2,12.9c0.1,3.5,0.7,7-0.6,10.3"/>
<path class="st5" d="M171.8,310.3c-0.4,2.3-0.5,4.7-0.3,7c0.3,2.4,0.5,4.8,0.5,7.2c0,2.5-1.1,4.8-2.9,6.4"/>
<path class="st5" d="M166.8,332c-0.6,2.5-1.9,4.8-3.8,6.6"/>
<path class="st5" d="M155.3,345c-0.9,0.5-1.5,1.5-1.7,2.5c-0.6,2.3-0.9,4.6-0.7,7h1"/>
<path class="st5" d="M157,345.6c-0.3,2-0.5,3.9-0.8,5.9c-0.1,0.5-0.1,1.1,0,1.6c0.2,0.6,0.7,0.9,1.3,0.8c0.1-0.4,0.2-0.7,0.4-1"/>
<path class="st5" d="M159.7,350.6v-4.8c0.2,1.4,1.4,2.3,1.2,3.8"/>
<path class="st5" d="M145.1,303.9c-0.1,2.3,0.4,4.5,1.6,6.5"/>
<path class="st5" d="M150.5,302.6c0.1,1.1,0.6,2.2,1.2,3.2"/>
<path class="st5" d="M155.4,309c0.4,2,0,4.2-1.2,5.9"/>
<path class="st5" d="M148.4,325.1c-0.4,0.9-0.9,1.8-1.5,2.6"/>
<path class="st5" d="M128.8,349.9c1.8-3.1,4.6-5.5,7.9-6.8c1.7-0.6,3.5-1,4.9-2.1"/>
<path class="st5" d="M145.4,352.8c-0.4-1-0.3-2.1,0.2-3c0.9-2.2,2.4-4.1,4.2-5.7"/>
<path class="st5" d="M124.7,345.9c1.8,0.6,3,2.5,2.7,4.4"/>
<path class="st5" d="M158.9,275.1c0.2,0.1,0.2,0.5,0.1,0.8c-0.6,1.9-1.5,3.6-2.8,5.1"/>
<path class="st5" d="M164,275.4c-0.3,1.7-0.8,3.3-1.5,4.9"/>
<path class="st5" d="M156.2,224.3c-0.2-3.5,1.6-6.8,4.6-8.6c0.1-0.1,0.2-0.1,0.3-0.1c0.2,0,0.3,0.2,0.4,0.3c0.3,0.4,0.6,0.8,1,1.2"
	/>
<path class="st5" d="M148.6,220.8c0.4,0.5,1.1,0.3,1.7,0.1c0.6-0.2,1.4,0,1.4,0.6"/>
<path class="st5" d="M130.7,218.2c1.2,0.3,1.7,1.7,1.7,2.9"/>
<path class="st5" d="M119.6,219.9c1.1,0.8,1.9,2,2.3,3.4"/>
<path class="st5" d="M119.2,227.4c1.5-0.6,3-0.8,4.6-0.6"/>
<path class="st5" d="M132.2,194c0.6,1,1.3,1.9,2.1,2.8c0.7,0.8,1.6,1.5,2.5,2.1c2.6,1.2,5.7,0.8,7.9-1c2.2-1.8,3.6-4.4,4-7.2"/>
<path class="st5" d="M128.5,179.1c1.7-1.1,3.7-1.7,5.8-1.7c1.6,0.1,3.2,0.3,4.7,0.8c4.3,1,8.4,2.3,12.4,4.1c0,0.2-0.3,0.5-0.5,0.3"
	/>
<path class="st5" d="M142.7,173c0.5-0.9,1.8-0.6,2.7,0c1.6,1,3,2.4,4.1,4"/>
<path class="st5" d="M138.1,174.5c5-0.7,9.9,1.6,12.6,5.8"/>
<path class="st5" d="M145.8,170.8c1.6,0.4,2.9,1.6,3.5,3.1"/>
<path class="st5" d="M139.2,182.3c1.9-0.1,3.9,0.4,5.6,1.3"/>
<path class="st5" d="M129.6,183.2c1.2-0.9,2.8-1.4,4.3-1.2"/>
<path class="st5" d="M140.6,184.9c0.9,0.1,1.9,0,2.8-0.2"/>
<path class="st5" d="M130.3,185.6c0.8,0.1,1.7,0.1,2.5,0.2"/>
<path class="st5" d="M133.1,191.4c3,0.5,6,0.4,8.9-0.1c-0.7,1.4-1.6,3-3.1,3.3C137.7,194.9,133.9,192.3,133.1,191.4z"/>
<path class="st5" d="M132.9,196.1c-0.1,0.1-0.1-0.2,0-0.2c0.1,0,0.2,0.1,0.2,0.3c0.3,2.1,0.6,4.2,0.9,6.2"/>
<path class="st5" d="M149,200.4c2.2-1.2,4.7-1.3,7-0.4"/>
<path class="st5" d="M157.9,208.9c-0.3,1.3,0,2.7,0.9,3.8c1,1,2,1.8,3.2,2.5"/>
<path class="st5" d="M127.9,213.6c-1.2-2.5-1.4-5.4-0.6-8.1"/>
<path class="st5" d="M132.5,245.8c5.5-0.1,11-0.1,16.5-0.1"/>
<path class="st5" d="M152.5,246.2c2.6-0.3,5.3-0.8,7.8-1.6"/>
<path class="st5" d="M160.3,239.8c-1.4,1.9-3.4,3.3-5.6,4.1v-0.3"/>
<path class="st5" d="M148.2,234c-2.1,0.7-3.5,2.7-3.3,4.9c1.5-0.6,2.7-1.7,3.3-3.2"/>
<path class="st5" d="M154.9,244.2c-2.2,1.1-4.7,1.4-7,0.7c-0.5-0.1-0.9-0.4-1.3-0.7c-0.4-0.6-0.6-1.3-0.7-2
	c-0.2-0.8-0.7-1.5-1.3-2.1c0.8-0.6,1.7-1.1,2.5-1.7c1.8-1.4,3.8-2.5,5.9-3.2h-1"/>
<path class="st5" d="M151.5,233.9c1.3-0.2,2.7,0,4.1-0.1c1.4,0,2.7-0.7,3.4-1.9"/>
<line class="st4" x1="152" y1="262.3" x2="151" y2="245.3"/>
<path class="st4" d="M150.8,236.1c-0.3-1.4,7.5-40.8,7.5-40.8"/>
<line class="st4" x1="128" y1="195.6" x2="124.2" y2="226.3"/>
<line class="st4" x1="121.5" y1="237.8" x2="117.6" y2="257.8"/>
<line class="st4" x1="165.5" y1="237.3" x2="171.6" y2="251.6"/>
<line class="st6" x1="105.7" y1="224.1" x2="112.1" y2="224.1"/>
<text transform="matrix(1 0 0 1 66.4378 228.5006)" class="st7 st8">Actor</text>
<path class="st9" d="M262.8,335.9c-1.6,1.9-3.5,3.6-5.6,5c-2.1,1.2-6.6,4.1-7.2,9.1s-0.4,6.7,3.4,7.6c3.8,0.9,12.7,3.5,21.5,1.2
	c8.8-2.3,11.1-4.4,13.5-8.6s1.6-10.7,1-11.1C288.9,338.5,262.8,335.9,262.8,335.9z"/>
<path class="st9" d="M309.1,339.5c-0.1,3.1,0.1,6.2,0.6,9.2c0.6,2.9,0,8.1,4,9.7c4,1.6,10.5,2.8,18.6,1.6s11.7-3.2,12.5-5.1
	s0.9-3.7-1-8.2s-6.7-10-6.7-10L309.1,339.5z"/>
<path class="st9" d="M355.7,266.7c-1.9-4.6-7.9-10.5-12.8-14.5c-0.2-2-0.3-3.4-0.4-3.9c-0.1-2.8-1.8-13.8-1.8-13.8l-89.2,7l-0.7,3.4
	c0,0-13.3,1.8-22.1,6.7c-8.8,4.9-10.7,10.3-11.4,15.7s6.4,6.6,11.7,6.2s18.8-2.5,18.8-2.5s-0.3,7.2-0.9,12.5s-2.9,25.8-0.4,35
	c1.9,7.6,6.8,14,13.5,17.9c5.7,3.4,14.8,4.4,27.1,4.5c12.3,0.1,20.2,1,30.9,0.4c10.7-0.6,17.1-1.8,20.9-4.2s8.9-9.5,10.7-19.3
	s-0.7-18.6-1.3-22s-2.2-15.5-2.2-15.5v-0.4c2.4,0.5,4.8,0.6,7.2,0.2C358,279.3,358.4,273.6,355.7,266.7z"/>
<path class="st10" d="M257.2,247.7c1.2,1.2,3.2,4.8,1.8,11.4s-5.1,12.2-11.3,11.9"/>
<path class="st10" d="M328.1,246.2c-3.2,1.3-6.9,8.9-6.2,16.7c0.7,7.8,8.1,11.1,14.1,13.8s12.3,4.1,17.1,3.4s5.3-6.4,2.5-13.3
	s-14.8-16.7-18.8-18.6S330.9,245,328.1,246.2z"/>
<path class="st9" d="M269.2,163.3c0,0-8.8-15.1-16.8-24.2c-8-9.1-19.8-17.7-22.6-19s-3.2,1.6-3.2,2.9s0.7,16.7,3.5,27.4
	s11.1,29.6,16.4,35.5c0,0-5.4,11.6-6.4,23.4s1.8,23.9,7.2,29.2s18.8,8.2,26.1,9.4c7.3,1.2,17.4,2.9,23.6,1.9s21.2-3.2,27.5-3.8
	c6.5-0.5,12.5-3.9,16.4-9.2c4-5.6,6.7-14.7,7.3-24s-2.6-22.3-6-26.2c0,0,7.6-11.9,11.6-19.5s8.1-15.4,10.3-26.5s3.2-16.8,3.2-19.3
	s-1.9-3.4-3.4-2.3s-17,10.5-21.4,14.5c-6.4,6.2-12.2,13-17.6,20.1c-2.1,3-4.1,6.2-5.9,9.4c0,0-8.5-3.4-22.9-4.1
	C287,158.6,277.8,160.1,269.2,163.3z"/>
<path class="st10" d="M367.2,121.1c0-2.5-1.9-3.4-3.4-2.3c-1.3,0.9-12.9,8-18.9,12.5c3.1,1,7.1,3.4,10.3,8.7c2.4,4.2,4.1,8.7,5,13.4
	c1.7-4.2,2.9-8.6,3.8-13C366.2,129.3,367.2,123.6,367.2,121.1z"/>
<path class="st10" d="M229.8,120.1c-2.8-1.3-3.2,1.6-3.2,2.9s0.7,16.7,3.5,27.4c0.1,0.5,0.3,1,0.4,1.6c1.1-5.6,3.2-11.5,7.8-15.2
	c2.5-2,5.5-3.1,8.7-3.2C239.8,126.7,232,121.1,229.8,120.1z"/>
<path class="st10" d="M341.7,186.3c-2.2-1.5-7.6-7-10.4-10.8c-2.6-3.2-5.3-6.3-8.2-9.2"/>
<path class="st10" d="M266.6,205.5c2-8.5-4.2-10.8-7.8-9.2s-6.9,8.1-5.3,13.6S264.5,214,266.6,205.5z"/>
<path class="st10" d="M320.8,198c-4.8-4.2-11.3-3.4-13.6,1c-2.3,4.4-1.3,12.4,7.9,13.5C323.6,213.5,325.3,202,320.8,198z"/>
<path class="st10" d="M284.2,216c-1.9-1-2.6-2.5,0.1-2.9s4.5,0.7,3.7,1.5C287.2,215.4,285.9,216.9,284.2,216z"/>
<path class="st10" d="M268.9,212.8c2.9-2.2,10.7-5,18.9-4.5c8.2,0.5,17.4,5.3,17.4,5.3"/>
<path class="st10" d="M275.8,224.1c0,0,6.9-1.8,8.1-2.2c1.8-0.6,3.6-0.6,5.4,0c2.8,0.7,7.3,2.1,7.8,2.3s-0.9,5.9-2.6,8.8
	s-6.4,6.6-7.9,6.7s-6.3-5.1-8.1-7.8C276.7,229.2,273.9,225.7,275.8,224.1z"/>
<path class="st10" d="M251.2,220.6c-1.9-5.1-6.3-5.9-8.4-3.8s-1,9.2,0.6,13.6c1.4,4,4.2,7.3,7.9,9.4c3.1,1.6,5.7,2.8,5.1-1.5
	C255.8,234,251.2,220.6,251.2,220.6z"/>
<path class="st10" d="M320.5,232.9c0.3-6,4.1-14.7,8.9-17s10.4,0,11.3,5.9s-2.5,13.3-6.7,16.3s-10.7,2.8-12,1.9
	S320.4,235.6,320.5,232.9z"/>
<path class="st10" d="M330.9,243.9c0,0,9.5,2.6,11.9,8.3"/>
<path class="st10" d="M334.3,242.5c0,0,6.1,1.1,8.2,5.7"/>
<path class="st10" d="M319.6,253.9c-0.3,5,0.7,8.7,4,13.7"/>
<path class="st10" d="M326.2,253.9c-2,3.3-2.7,7.2-2,11"/>
<path class="st10" d="M326.9,259.6c-0.7,2.7-1.7,6.7-0.3,9.4"/>
<path class="st10" d="M328.6,263.9c-0.7,1.7-1.7,6,0.3,7.4"/>
<path class="st10" d="M255,253.2c0.7,1.7,1,6.4-1.3,11c-2.3,4.6-3.7,4-3.7,4"/>
<path class="st10" d="M252.4,257.9c0,0-1,6.4-5.3,10.4"/>
<path class="st10" d="M247.7,261.2c-0.6,2.6-1.8,5.1-3.7,7"/>
<path class="st10" d="M327.6,277c2.7,3.3,6.4,4.3,10.7,5.3"/>
<path class="st10" d="M332.3,285.7c2.4,1.3,5.1,1.7,7.7,1.3"/>
<path class="st10" d="M334.9,292.7c1.6,1.3,3.8,1.7,5.7,1"/>
<path class="st10" d="M336.3,297.7c2,1.7,4,2.3,5.7,2"/>
<path class="st10" d="M343.6,306c0,0,2.7,18.1-10.7,28.1"/>
<path class="st10" d="M339.6,317.1c0,0-2.3,11-11,17"/>
<path class="st10" d="M330.9,324.8c0,0-1,4.7-6.4,8.4"/>
<path class="st10" d="M262.7,260.6c0,0-0.3,8-11,13.7"/>
<path class="st10" d="M262.4,270.6c-2.5,3.3-6,5.8-10,7"/>
<path class="st10" d="M274.4,209.1c0,0,12.4-5.7,25.4-0.7"/>
<path class="st10" d="M324.2,172c0,0,2.7,2.7,5,5.3s10,9,10,9"/>
<path class="st10" d="M330.9,169c0,0,3.7,6.4,5.3,8.7c1.5,1.8,3.3,3.4,5.3,4.7"/>
<line class="st10" x1="337.3" y1="173.7" x2="342" y2="178.3"/>
<line class="st10" x1="340.9" y1="173" x2="344.6" y2="175"/>
<line class="st10" x1="343.6" y1="170.3" x2="347.6" y2="169.6"/>
<path class="st10" d="M235.3,150.9c-0.3,1.3,0.3,7.4,1.3,10s6.7,12.7,6.7,12.7"/>
<line class="st10" x1="246" y1="171.7" x2="244.7" y2="176.7"/>
<path class="st10" d="M255,167.6c-3.7,2.3-8.4,11.7-8.4,11.7"/>
<path class="st10" d="M259.4,172.3c0,0-8.7,8-12.9,13.5c0,0,6.9-13,17.1-19.5"/>
<path class="st10" d="M262.4,340.1c0.7,1,8.4,3,17,3s6.7-1,6.7-1"/>
<path class="st10" d="M264.7,343.5c0,0,11.4,2.7,20.7,0.7"/>
<path class="st10" d="M268.4,348.2c0,0,9.7,1.7,16.7-1"/>
<path class="st10" d="M269.1,352.2c4.7,0.7,9.5,0.3,14-1.3"/>
<path class="st10" d="M312.5,344.2c0,0,12,0.3,21.1-2.7"/>
<path class="st10" d="M312.2,346.2c1,0,6.4,1.3,12.7,0"/>
<path class="st10" d="M313.2,347.8c0,0,4.3,2,8,1.3"/>
<path class="st10" d="M313.9,350.8c2,0.9,4.2,1.5,6.4,1.7"/>
<rect x="225.9" y="6" class="st0" width="137.5" height="147.6"/>
<text transform="matrix(1 0 0 1 237.7678 17.2406)" class="st11 st7 st8"> Hoy en día, la </text>
<text transform="matrix(1 0 0 1 229.1678 35.2406)" class="st11 st7 st8">mayoría de los trajes</text>
<text transform="matrix(1 0 0 1 226.6182 53.2406)" class="st11 st7 st8">está hecho de algodón,</text>
<text transform="matrix(1 0 0 1 238.8278 71.2406)" class="st11 st7 st8">poliespuma, plástico</text>
<text transform="matrix(1 0 0 1 229.1278 89.2406)" class="st11 st7 st8">y otros materiales.</text>
<text transform="matrix(1 0 0 1 227.9578 107.2406)" class="st11 st7 st8">Reduciendo su peso </text>
<text transform="matrix(1 0 0 1 253.4978 125.2406)" class="st11 st7 st8">a unos 8kg</text>
<g id="animacion">
	<path class="st5" d="M101.3,54.3c0.5-2.5,2.3-4.5,4.7-5.2"/>
	<path class="st5" d="M105.5,45.8c1.3-0.7,2.9-1.1,4.4-1"/>
	<path class="st5" d="M116.8,48.3c0.9,0.4,1.7,1,2.4,1.8"/>
	<path class="st5" d="M122.4,54c1.2,0.7,2.1,1.8,2.7,3"/>
	<path class="st5" d="M172.5,162.3c-0.9,0.6-1.7,1.3-2.6,1.9"/>
	<path class="st5" d="M165.6,159.3c-0.5,2.2-2.1,3.9-4.1,4.8"/>
	<path class="st5" d="M159.7,168c-0.6,0.3-1.2,0.5-1.8,0.8"/>
	<path class="st5" d="M157,162.5c0.4-1.2,1.3-2.3,2.4-2.9"/>
	<path class="st5" d="M164.8,166.7c1,0.1,1.9-0.5,2-1.5"/>
	<path class="st5" d="M168.7,158l1.2-0.6l-1.2,0.3"/>
	<path class="st2" d="M181.9,135.7c0.9-2.4,1.3-5,1.2-7.6c-0.3-2.8-1-5.6-1.9-8.3c-1.1-3.3,0.8-5-4.4-9.1c-3-2.3-5.9-4.7-8.7-7.3
		c-2.6-2.2-5.1-4.7-7.4-7.3c-4.2-4.6-6.2-4.7-9.6-8.8c-3.2-3.9-5.8-8.3-7.6-13c-1.5-4-8.6-12.2-10.9-14.8s-4.3-5.5-5.2-6.6
		c-0.9-1.1-0.7-1.4-1.1-3.3s-1.9-1.9-3.5-1.9s-13.9-5.4-17.6-4.7s-6,3.1-8.2,5.4c-2.2,2.3-4.4,2.7-5.3,5.9c-0.9,3.2,0.1,3.8,1.9,5.4
		s1.7,1.8,0.6,3.6c-1.1,1.8-1.6,0-2.3,3.2c-0.7,3.2-0.3,3.3-0.9,4.5c-0.6,1.2-2-0.3-1.5,2.7s0.1,4,2.4,4.6s3.2,0.9,4.4,0.4
		c1.2-0.5-0.7,0.3,3.3-1.3s7.7-5.1,5.5-1.2c-2.2,3.9-2.7,4.7-3.8,5.9s-2.3,0.8-3.1,2.7c-0.8,1.9-2.4,2.3,0.3,2.7
		c1.5,0.2,3,0.2,4.5,0c1.4,0,0.6,0.3,2.5-0.3s1.6-0.2,3.1-1.1s2.1-3.3,2.9-1.3s0.6,0.5,1.8,4.1c1.2,3.6,2.7,4.6,2.7,6.7
		s-1.1,4.8-2.1,7c-1.1,2.5-2,5-2.7,7.6c-0.9,3-0.8,4.1-3.4,4.8c-2.6,0.7-7.3,2.9-9.2,4.8c-1.9,1.8-4,3.5-6.1,5.1
		c-2,1.5-6.8,3.9-8.2,3.9s-3.1,1.5-6.5,0.4c-3.4-1.1-6.2-1.8-8.5-1.3c-2.3,0.5-7,2.3-8.1,3.5c-1.1,1.2-2.6,2.2-3.2,4.3s-0.5,3.5-1,5
		s3.5-2.6,3.4-1.7c-0.1,0.9-2.2,3-2.1,5c0.1,2,3.6-3.2,3.2-1.8c-0.2,0.8-0.9,2-1.4,3.2c0.8-0.6,2.2-1.1,4.7-1.3
		c8.6-0.7,8.3-0.3,11.8,0.2s2.5,0.8,6.6,0.6c2.6-0.1,5.2-0.5,7.7-1.1c3-0.7,4.9,0.1,7.3-0.9c2.4-1,4.5,0,5.7-1.7
		c1.2-1.7,2-2.2,2.8-0.1c0.8,2.1-0.5,4.8-0.6,6.8s1.2,3.5,0.6,6.3c-0.4,1.6-0.5,3.3-0.5,5h0.6c-0.4,0.8-0.6,1.8-0.6,2.7
		c0,8.6,16.4,15.5,36.5,15.5c17.1,0,31.5-5,35.4-11.7l1.4,0.1c-0.2-0.9-0.3-1.9-0.4-2.8c0.1-0.4,0.1-0.7,0.1-1.1
		c0-0.6-0.1-1.1-0.2-1.7c0-1,0.1-2.1,0.3-3.1c0.8-4.1,1.3-4,2.1-8.1c0.6-2.8,0.8-5.6,0.6-8.4C182,138.3,181.2,137.7,181.9,135.7z"/>
	<path class="st5" d="M109,57.8c-1.6,0.8-2.8,2.3-3.4,4c-0.3,0.7-0.2,1.4,0.2,2c0.7,0.7,1.8,0.3,2.6-0.2
		C109.2,63.1,108.1,58.5,109,57.8z"/>
	<path class="st5" d="M179.2,135.9c-2.2,0-3.4,2.6-4.4,4.6c-1.9,3.9-5.2,6.9-9.2,8.5c-1.3,0.5-2.8,1-3.5,2.1c-0.6,0.9-0.6,2.1-1,3
		c-0.6,1-1.5,1.8-2.5,2.3c-4.2,2.5-8.9,3.9-13.7,4.3"/>
	<path class="st5" d="M158.3,124.3c-2,3.6-4.6,6.9-7.6,9.7c-3.1,2.8-7.1,4.4-11.3,4.5c-0.7-0.1-1.5,0-2.2,0.1
		c-3.2,0.8-3.8,5.7-7,6.5c-1.2,0.2-2.4,0.1-3.6-0.1c-4.2-0.1-7.6,3.3-10.3,6.5c2.5-0.1,4.9-0.5,7.3-1.1c-3.2,2.1-4.7,6.1-3.5,9.8
		c1.7-2.3,4.1-4.1,6.8-5.1c-1.9,3.1-3.9,7-2.1,10.1c1-3.3,3.8-5.9,7.2-6.7c-1.4,2.9-1.4,6.3,0.2,9.1c0.6-3.7,4.1-6.2,7.8-5.6
		c0.2,0,0.4,0.1,0.7,0.1"/>
	<path class="st5" d="M171.4,135.2c-1.2,2.8-3.6,5-6.6,5.9"/>
	<path class="st5" d="M160.9,141.3c-1,1.5-2.5,2.7-4.2,3.3"/>
	<path class="st5" d="M149,154.5c2.4-0.4,4.6-1.6,6.2-3.4"/>
	<path class="st5" d="M160.6,147.1l0.9-0.9C161.2,146.4,160.9,146.7,160.6,147.1"/>
	<path class="st5" d="M175,148.9c-0.9,2.9-3.1,5.2-6,6.2"/>
	<path class="st5" d="M172.3,148.6c-1.5,1.7-3.5,2.7-5.7,3"/>
	<path class="st5" d="M173.4,156c-0.9,0.7-1.6,1.7-2.1,2.7"/>
	<path class="st5" d="M174.4,160.9c1.3-1,1.9-2.7,1.7-4.3"/>
	<path class="st5" d="M160.2,113.7c0.4,1.2-0.1,2.5-1.1,3.3"/>
	<path class="st5" d="M124.5,80.3c1.7,1.2,2.9,2.9,3.6,4.9c0.6,2,1.2,4,1.6,6c0.6,2.1,1.3,4.2,2.1,6.2c0.5,1.3,1.1,2.8,2.5,3.3"/>
	<path class="st5" d="M111.7,83.6c3.2-1.1,5.8-3.7,6.9-6.9"/>
	<path class="st5" d="M117.1,88.5c3.6,0.5,7.1-0.9,9.4-3.7"/>
	<path class="st5" d="M117.2,96.2c1.8,1.1,3.8,1.7,5.9,1.8c1.2,0,2.7-0.4,2.8-1.6"/>
	<path class="st5" d="M107.5,138.1c-0.1-2.9,0.1-5.8,0.8-8.6c0.6-2.9,2.3-5.4,4.6-7.2"/>
	<path class="st5" d="M122,123.3c1.2,1.5,2.8,2.6,4.6,3.2"/>
	<path class="st5" d="M120.9,128.9c0.7,1.4,1.9,2.6,3.3,3.3"/>
	<path class="st5" d="M119.5,135.3c0.1,0.6,0.5,1.2,1.1,1.5C120.2,136.3,119.8,135.8,119.5,135.3"/>
	<text transform="matrix(1 0 0 1 156.3578 11.5906)" class="st7 st8">Traje de</text>
	<text transform="matrix(1 0 0 1 145.3478 29.5906)" class="st7 st8">    látex</text>
	<text transform="matrix(1 0 0 1 147.4824 48.2605)" class="st7 st8">(</text>
	<text transform="matrix(1 0 0 1 154.5636 50.0605)" class="st7 st8">Pesa</text>
	<text transform="matrix(1 0 0 1 157.8678 65.5906)" class="st7 st8">hasta</text>
	<text transform="matrix(1 0 0 1 151.9778 83.5906)" class="st7 st8">100kg)</text>
	<path class="st6" d="M119.2,43.9c0,0-0.3-35.3,31.1-36.7"/>
</g>
<rect x="373.9" y="163.1" class="st0" width="4.7" height="6.8"/>
</svg>
