<svg id="Layer_1" data-name="Layer 1" xmlns="http://www.w3.org/2000/svg" viewBox="0 0 418.7 147.26"><defs><style>.cls-1,.cls-10,.cls-5,.cls-8{fill:none;}.cls-2,.cls-3{isolation:isolate;}.cls-3{font-size:15px;font-family:ArialMT, Arial;}.cls-4{letter-spacing:-0.06em;}.cls-10,.cls-5,.cls-6,.cls-7,.cls-8{stroke:#000;}.cls-5,.cls-6,.cls-7,.cls-8{stroke-linecap:round;stroke-linejoin:round;}.cls-6,.cls-9{fill:#62b5d7;}.cls-7{fill:#fff;}.cls-8{stroke-width:0.35px;}.cls-10{stroke-miterlimit:10;stroke-width:0.5px;}</style></defs><rect class="cls-1" x="43.21" y="3.57" width="85.06" height="55.12"/><g class="cls-2"><text class="cls-3" transform="translate(64.61 14.82)">Placas </text><text class="cls-3" transform="translate(36.36 33.55)">dorsales de un </text><text class="cls-3" transform="translate(44.28 50.82)">Estegosaurio</text></g><rect class="cls-1" x="304.6" y="3.57" width="80.07" height="55.12"/><g class="cls-2"><text class="cls-3" transform="translate(309.4 14.82)">Brazos largos </text><text class="cls-3" transform="translate(327.99 32.82)">de un </text><text class="cls-3" transform="translate(309.54 50.82)">Iguanodon</text></g><rect class="cls-1" x="154.43" y="92.14" width="124.15" height="55.12"/><g class="cls-2"><text class="cls-3" transform="translate(163.75 103.39)">Forma general de </text><text class="cls-3" transform="translate(159.75 121.39)">un modelo antiguo de </text><text class="cls-3" transform="translate(155.24 139.39)"><tspan class="cls-4">T</tspan><tspan x="8.33" y="0">yrannosaurio rex</tspan></text></g><path class="cls-5" d="M52.31,122.44a43.69,43.69,0,0,1-4.45-2" transform="translate(-4.16 -27.24)"/><path class="cls-6" d="M31.39,132.81l-.35-.2c-.75-.45-2.45-1.55-2.38-2.26.1-.91.91-4.27,1-4.54s3,.63,3.27.82,2.91-7.74,2.91-7.74a30.52,30.52,0,0,0,3.82-.18c.46-.18,1.37-6.37,1.37-6.37l7.09.46s-.45-2.27-.73-3.73-.63-3.64-.27-4.09,4-.91,5.18-.64,2.91,1.46,3.37,1.27,1.09-2.36,1.09-2.91-.45-1.36-.73-2.73-.72-2.82.19-2.82,11.55,4.28,11.55,4.28,2.36-10.64,2.73-10.19a88,88,0,0,0,7.73,4.91c.36.1,4-6.18,4.27-6.27s6.91,5.73,7.1,6.64,2.27,4.82,2.36,4.55,4.73-8.28,5.55-7.46,4.82,8.09,4.82,8.09,4.09-5,4.64-4.09,3.46,7.73,3.73,8.73a32.37,32.37,0,0,1,.54,4.09A7.23,7.23,0,0,1,110,113c-.19.16-1,1.11-1.77,2.15-1.11,1.43-2.32,3-2.32,3l1.64,2.27.63-1.27a22.62,22.62,0,0,0,.91-4.19c-.08-.83,2.64-1.27,3.19-1.63s4.36-6.1,4.82-5.64a31.08,31.08,0,0,1,2,6c0,.45,4.09-.73,4.55-.73s0,3.19-.19,4.19-.72,4.45-.91,5-5.45,5-5.45,5l3.91,3.37s1.18-4.82,1.18-5.1,4.73-4.82,4.91-4.55a28,28,0,0,1,.55,3.28l2.64-.64s-.46,2.91-.46,3.64-4.42,5.59-4.42,5.59l4,1.88.12-3.47L132,128l.37,3.46,1.82-2s.27,2.55.27,2.82-1.64,4.1-1.64,4.1l3-.73s0-2.36.09-2.73.82-2.36,1-2.09l.73,2.46-1.09,2.81-.82,1.46-19.37.46c-.37,0-38.48-19.38-38.48-19.38L39.58,132.08Z" transform="translate(-4.16 -27.24)"/><path class="cls-7" d="M5.38,132.63s.27,0,2.64.36,16.82,2.28,27.28-2.73S47.4,124.62,52,122,68,111.8,81.51,112.62s25,5.91,28.56,8.37a105.92,105.92,0,0,1,10.55,8.55c2.1,2,8,5.27,11,5.73a24,24,0,0,0,7.09.18c2.1-.27,4.82.82,7.46,1.09s4.55,1.27,4.46,2.64-.82,1-.82,1-.18.91-2.09,1.27-1.91,0-2.91.82-3.37.09-4.64.45a27.16,27.16,0,0,1-3.28,1.19,20.47,20.47,0,0,0-2.72.45c-.73.27-6.37,1-8.83,1.64s-2.73,1-2.27,1.73,2.91,4.73,4.18,5.64,2.19,1.27,2.46,2.73a9.77,9.77,0,0,1,.27,3.09,3.36,3.36,0,0,0,.64,2.91,10.71,10.71,0,0,1,1.91,2.18c.54,1,1.18,1.46.73,2s-1.91-.54-1.91-.54a2.55,2.55,0,0,1-1.82.36c-.82-.27-2.55-1.18-3.82-1.73s-2.37-1.09-2-1.73a2.8,2.8,0,0,0,.63-2.27,3.33,3.33,0,0,0-1.18-2.09c-.64-.37-3.46-3.18-4.46-3.28a6.32,6.32,0,0,1-3.36-2.36c-.46-.82-1.73-3.55-1.73-3.55s-2.91,0-3.64,1.55-.54,3.82-.54,4.82a31.56,31.56,0,0,1,.09,3.18c-.09,1.55-.91,2.46.18,3.37a14,14,0,0,0,2.91,2,9.77,9.77,0,0,1,2.27,1.45c.91.73,1.82,1.46,1.46,1.73a4.35,4.35,0,0,1-2.18,0,13.2,13.2,0,0,0-2.37-.18c-.91,0-1.55.55-2.82.18s-2.18,0-2.82-.73a3.44,3.44,0,0,1-.82-1.91c-.18-.72-2.54-4.54-2.82-6.09s-1.27-4.73-1.27-5-.09-1.46-.09-1.46A64.49,64.49,0,0,0,94,150.64c-1.91-.09-4.73-.18-4.73-.18a21.47,21.47,0,0,0-.45,3.73c0,1.63-.37,4.36,0,5.73s.45,2.09,1.64,3,1.09,1.27,2.63,2.09A14.15,14.15,0,0,1,96,167.19L92.34,167s-1.28.18-1.91.18-3.1.28-4-.09S85,166,84.06,164.37s-1.18-1.73-1.09-3.64a6.25,6.25,0,0,0-1.46-4.09,17.45,17.45,0,0,1-2.27-4.09c-.37-1.28-.73-2.82-.73-2.82s-4.45.15-5.64-.64c-.09.09-1.18,2.64-2.64,3.46s-3.36.27-3.45.63a32.34,32.34,0,0,1-2.82,3.1c-.82.91-2,1.27-2,2.45s-.28,1.64.27,2.91.27,1.73,1.45,2.64,1.82,1.18,2.1,1.91a3.59,3.59,0,0,1,.27,1.09l-3-.63a3.58,3.58,0,0,1-1.19-.82s-.18.82-.9.82a3.85,3.85,0,0,1-3.55-2.37c-.91-2.09-1.64-5.18-1.46-5.91s1.18-1.46,1.73-2.64,1.73-3.64,1.73-3.64.27.09.64-1.18A13.14,13.14,0,0,1,62.41,147a13.83,13.83,0,0,0,1.73-2.09c.36-.73,1.54-1.28.73-1.91a10.14,10.14,0,0,0-2-1.18c-1-.55-3-4.1-3-4.1s-33.38,3.73-46.11-1.54S5.38,132.63,5.38,132.63Z" transform="translate(-4.16 -27.24)"/><path class="cls-7" d="M21.48,134.45s-5.64-9-6.82-13.19c.18-.37,9.09,12.06,9.09,12.06S23.22,135.29,21.48,134.45Z" transform="translate(-4.16 -27.24)"/><path class="cls-7" d="M24.43,133.24s.78-9.16-.4-12.25a22.26,22.26,0,0,1,2.59,11.92Z" transform="translate(-4.16 -27.24)"/><path class="cls-7" d="M16.48,133.27s.18,1.27-.91,1.36-1.93.18-2-.46-4.64-7.82-4.82-10.27,1.36,1.63,2.45,3.36A63.76,63.76,0,0,0,16.48,133.27Z" transform="translate(-4.16 -27.24)"/><path class="cls-7" d="M17.57,133.65s2.18-6.84-.18-13.12c.36.46,2.27,3.82,2.36,6.28a66.74,66.74,0,0,1-.35,6.81Z" transform="translate(-4.16 -27.24)"/><path class="cls-8" d="M62.76,128.51a6.45,6.45,0,0,0,2.4,4,29.19,29.19,0,0,1,3.52,3.23,25.32,25.32,0,0,1,1.9,3.13c2.31,4,6,7,8,11.15" transform="translate(-4.16 -27.24)"/><path class="cls-8" d="M72.75,149.23l-1.68-1.49a3.84,3.84,0,0,1-.76-.8,11.2,11.2,0,0,1-.61-1.37,3.35,3.35,0,0,0-1.85-1.7c-.39-.15-.85-.25-1.06-.61" transform="translate(-4.16 -27.24)"/><path class="cls-8" d="M64,135.72a4.38,4.38,0,0,0,1.84,2.4L70,141.48a5.92,5.92,0,0,1,.93.87,6.91,6.91,0,0,1,1,2.35c.66,2.16,2,4.41,4.23,4.87" transform="translate(-4.16 -27.24)"/><path class="cls-8" d="M77.26,149.28c-.1.15-.33,0-.47-.09a9.91,9.91,0,0,1-2.56-3.82" transform="translate(-4.16 -27.24)"/><path class="cls-8" d="M58.89,131.9a5.32,5.32,0,0,0,2.22,4.19,2.4,2.4,0,0,0,2,.51" transform="translate(-4.16 -27.24)"/><path class="cls-8" d="M58.06,133.61c.21.49.21,1,.39,1.53a4.53,4.53,0,0,0,2.32,2.13V137" transform="translate(-4.16 -27.24)"/><path class="cls-8" d="M60.49,132.54a8,8,0,0,0,1.45,1.57,6.73,6.73,0,0,1,1.12,1,1.45,1.45,0,0,1,.3,1.4" transform="translate(-4.16 -27.24)"/><path class="cls-8" d="M63.55,134.38a24.54,24.54,0,0,0-1.73-3.14" transform="translate(-4.16 -27.24)"/><path class="cls-8" d="M101.91,144.32c.12-.37.23-.74.35-1.11a3.85,3.85,0,0,1,.59-1.32,4.09,4.09,0,0,1,1-.8,5.91,5.91,0,0,1,1.48-.8,5.81,5.81,0,0,1,.94-.2,8.21,8.21,0,0,1,2.52-.13,2.84,2.84,0,0,1,2.08,1.29.41.41,0,0,0-.3-.07" transform="translate(-4.16 -27.24)"/><path class="cls-8" d="M102.27,145.77c.08,0,0,.18,0,.22a.33.33,0,0,1-.27,0,2.3,2.3,0,0,1-1-1.63,5.49,5.49,0,0,1,.89-4.29,17.51,17.51,0,0,1,2.08-2.14,4.91,4.91,0,0,0,1.52-2.51" transform="translate(-4.16 -27.24)"/><path class="cls-8" d="M103,135.35l-2.71,4.31a6,6,0,0,0-.76,1.49,4.38,4.38,0,0,0-.13,1.69,5.41,5.41,0,0,0,2.38,4.31" transform="translate(-4.16 -27.24)"/><path class="cls-8" d="M93.74,150.53a5,5,0,0,0,.32-3.49c-.57-1.91-2.48-3.25-2.84-5.2-.23-1.22.13-2.66-.72-3.55" transform="translate(-4.16 -27.24)"/><path class="cls-8" d="M89.36,150.13a12.58,12.58,0,0,0,.13-6.53,13,13,0,0,1-.55-2.61c0-.65.1-1.3.07-1.94-.07-1.46-.9-2.75-1.32-4.15s-.45-2.7-.78-4-.94-2.27-.93-3.72a8.45,8.45,0,0,1,1.29-4.46" transform="translate(-4.16 -27.24)"/><path class="cls-8" d="M86.32,122.06a3,3,0,0,0-.76,1.55,8.41,8.41,0,0,0,.94,6" transform="translate(-4.16 -27.24)"/><path class="cls-8" d="M87.85,134.61a10.89,10.89,0,0,1-.44-2.73,23.63,23.63,0,0,1,.4-4.35l.18-1.09" transform="translate(-4.16 -27.24)"/><path class="cls-8" d="M88.85,131.08c-.12,1.76-.23,3.52-.35,5.28" transform="translate(-4.16 -27.24)"/><path class="cls-8" d="M65.42,140.18c1.28,1.08,3.1,1.67,3.81,3.19a11,11,0,0,0,.81,2" transform="translate(-4.16 -27.24)"/><path class="cls-8" d="M66.55,146.49a2.4,2.4,0,0,1,1.21,1.24c.18.42.24.89.39,1.32a3,3,0,0,0,1.57,1.71" transform="translate(-4.16 -27.24)"/><path class="cls-8" d="M64.36,150.17a3.91,3.91,0,0,0,2.32,2.75" transform="translate(-4.16 -27.24)"/><path class="cls-8" d="M63.51,151.73a6,6,0,0,0,1.94,2.05c.07.05.22,0,.14-.06" transform="translate(-4.16 -27.24)"/><path class="cls-8" d="M60,161.91a.09.09,0,0,1,.16,0,.24.24,0,0,1,0,.19c0,1.36,1.43,2.29,1.82,3.61,0,.07-.06.19-.09.12" transform="translate(-4.16 -27.24)"/><path class="cls-8" d="M88.33,164.28a.85.85,0,0,1,.59.15A10.52,10.52,0,0,1,92,167.14" transform="translate(-4.16 -27.24)"/><path class="cls-8" d="M109,166a4,4,0,0,1,2.93,1" transform="translate(-4.16 -27.24)"/><path class="cls-8" d="M111.88,164.88a4.2,4.2,0,0,1,2.46,2.11v-.26" transform="translate(-4.16 -27.24)"/><path class="cls-8" d="M128.53,162.84a6.84,6.84,0,0,1,2.35,2.76c0,.07.06.16,0,.22s-.19,0-.15,0" transform="translate(-4.16 -27.24)"/><path class="cls-8" d="M124.85,161.19a9.84,9.84,0,0,0,2.75.4c.44,0,1-.09,1.14-.49" transform="translate(-4.16 -27.24)"/><path class="cls-8" d="M125,160.25a4.5,4.5,0,0,0,3.09.05" transform="translate(-4.16 -27.24)"/><path class="cls-8" d="M127.26,158.51a7.6,7.6,0,0,0-1.25.61,2.41,2.41,0,0,1-2.11-.12" transform="translate(-4.16 -27.24)"/><path class="cls-8" d="M113.54,148.91a4,4,0,0,0,2.17-1.42,2.19,2.19,0,0,1,.38-.42,1.17,1.17,0,0,1,.44-.2,8.19,8.19,0,0,1,2.75,0,9,9,0,0,0,2.26-.13,1.56,1.56,0,0,0,.69-.25.55.55,0,0,0,.18-.66" transform="translate(-4.16 -27.24)"/><path class="cls-8" d="M113.51,141.37a3.32,3.32,0,0,1,0,3.11,15.09,15.09,0,0,1-1.42,1.87,11.37,11.37,0,0,0-1,1.74" transform="translate(-4.16 -27.24)"/><path class="cls-8" d="M102.14,153.37a1.73,1.73,0,0,1,.44-1.77,3.85,3.85,0,0,1,2.6-1.34" transform="translate(-4.16 -27.24)"/><path class="cls-8" d="M104.24,149.19a3,3,0,0,0-2.55,2.45,6,6,0,0,1-.07-2.16l1.2-5.66" transform="translate(-4.16 -27.24)"/><path class="cls-8" d="M117.28,142.27a3.32,3.32,0,0,1-.52,2.69,9.33,9.33,0,0,0-1.27,2.52" transform="translate(-4.16 -27.24)"/><path class="cls-8" d="M116.81,146.55a1.21,1.21,0,0,0,.08-.65c.3.07.58-.16.79-.38a5.25,5.25,0,0,0,1.28-3.88" transform="translate(-4.16 -27.24)"/><path class="cls-8" d="M119,145.72a5.25,5.25,0,0,0,2.31-3.81" transform="translate(-4.16 -27.24)"/><path class="cls-8" d="M139.27,137.45a2,2,0,0,0,1.52-.12l.32-.23a1.45,1.45,0,0,1,1.79.19.73.73,0,0,1,.23.76.62.62,0,0,1-.91.2,1,1,0,0,1-.3-1" transform="translate(-4.16 -27.24)"/><path class="cls-8" d="M147.27,138.08a2.22,2.22,0,0,1,1.36.47" transform="translate(-4.16 -27.24)"/><path class="cls-8" d="M139.73,141.21a8.18,8.18,0,0,0,2.09-.3c.4-.13.79-.31,1.19-.46a12.38,12.38,0,0,1,4.29-.54,6.65,6.65,0,0,1,1.89.15" transform="translate(-4.16 -27.24)"/><path class="cls-8" d="M139.17,140.54a.58.58,0,0,0,.19-.45l-.09.45" transform="translate(-4.16 -27.24)"/><path class="cls-8" d="M139,138.82a16.57,16.57,0,0,1-.17,4.1c0-.1-.05-.19-.08-.29" transform="translate(-4.16 -27.24)"/><path class="cls-8" d="M137.85,139.66a4.31,4.31,0,0,1-.16,3.48v0" transform="translate(-4.16 -27.24)"/><path class="cls-8" d="M136.63,139.73a13.91,13.91,0,0,1,.22,2.32c0,.62-.1,1.36-.67,1.6" transform="translate(-4.16 -27.24)"/><path class="cls-8" d="M132.88,141.82a2.57,2.57,0,0,1-.57,2.21" transform="translate(-4.16 -27.24)"/><path class="cls-8" d="M68.1,101a9.89,9.89,0,0,1-2,6.88,1.58,1.58,0,0,0-.35.6c-.17.67.56,1.2,1.17,1.52,1.64.87,3.33,2,3.92,3.73,0-.18,0-.36,0-.55" transform="translate(-4.16 -27.24)"/><path class="cls-8" d="M78.51,96.35c.13,0,0-.23-.1-.13s0,.26.1.35l5.69,6.27a2.53,2.53,0,0,1,.88,1.7,2.36,2.36,0,0,1-.24.85c-1,2.34-1.93,4.69-2.9,7,0-.21,0-.42,0-.62" transform="translate(-4.16 -27.24)"/><path class="cls-8" d="M71.84,94.55q.91,3.86,1.85,7.72A68.29,68.29,0,0,1,75.38,111c0-.15.07-.3.1-.46" transform="translate(-4.16 -27.24)"/><path class="cls-8" d="M71.15,100.37c1.3,3.89,2.62,7.79,3.56,11.79l0-.36" transform="translate(-4.16 -27.24)"/><path class="cls-8" d="M70.61,104.16a36.83,36.83,0,0,0,1.63,4.32,12.38,12.38,0,0,1,1.63,4.23v-.37" transform="translate(-4.16 -27.24)"/><path class="cls-8" d="M69.05,106.79c-.12.16,0,.38.06.56l2.29,4.32c.27.51.62,1.08,1.2,1.13" transform="translate(-4.16 -27.24)"/><path class="cls-8" d="M76.81,112.43a59.14,59.14,0,0,0,.47-8.09" transform="translate(-4.16 -27.24)"/><path class="cls-8" d="M78.81,101.61A34.2,34.2,0,0,1,78,112.88c0-.18,0-.36,0-.54" transform="translate(-4.16 -27.24)"/><path class="cls-8" d="M75.24,101.43a6.23,6.23,0,0,1,.43,2.43l.27,5.76" transform="translate(-4.16 -27.24)"/><path class="cls-8" d="M80.69,102.62a80.71,80.71,0,0,1-1.56,9.52c0-.11.07-.23.11-.34" transform="translate(-4.16 -27.24)"/><path class="cls-8" d="M82.34,104.61a2.23,2.23,0,0,1-.06,1.2q-.77,3.15-1.65,6.27" transform="translate(-4.16 -27.24)"/><path class="cls-8" d="M92.08,101.11c-.13-.11-.3.08-.37.24a14.69,14.69,0,0,1-3.64,5.08,1.37,1.37,0,0,0-.57.82,1.3,1.3,0,0,0,.06.44L89,113.4c0,.14.26.28.27.13" transform="translate(-4.16 -27.24)"/><path class="cls-8" d="M102.49,101.63a21.85,21.85,0,0,1,3,10.45,23.06,23.06,0,0,0-5.35,4.49.93.93,0,0,1,.15-.76" transform="translate(-4.16 -27.24)"/><path class="cls-8" d="M111.77,115.33c-.71,2-1.39,4-2.07,5.93a1.4,1.4,0,0,1,.29-.81" transform="translate(-4.16 -27.24)"/><path class="cls-8" d="M118.75,114c0,1.81-.09,3.62-.14,5.42a2.24,2.24,0,0,1-.32,1.35,2.47,2.47,0,0,1-.86.6,15.6,15.6,0,0,0-3.14,2.12l0-.48" transform="translate(-4.16 -27.24)"/><path class="cls-8" d="M112.83,122.47c1.83-2.5,3.69-5.06,4.57-8" transform="translate(-4.16 -27.24)"/><path class="cls-8" d="M116.51,112.43a47.11,47.11,0,0,1-4.14,9.12" transform="translate(-4.16 -27.24)"/><path class="cls-8" d="M114.66,113.42q-1.57,3.67-3.29,7.31" transform="translate(-4.16 -27.24)"/><path class="cls-8" d="M109.88,117.62a7.69,7.69,0,0,0-.54,2" transform="translate(-4.16 -27.24)"/><path class="cls-8" d="M119.06,122.06a10.88,10.88,0,0,1-2.5,2.43" transform="translate(-4.16 -27.24)"/><path class="cls-8" d="M127.72,123.61c-.41.19-.48.74-.49,1.2,0,1.24,0,2.48-.07,3.71a2.57,2.57,0,0,0-1.27.57,10.36,10.36,0,0,0-2,1.69c-.08.1-.19.2-.31.17s0-.27,0-.2" transform="translate(-4.16 -27.24)"/><path class="cls-8" d="M123.51,125.07a13.61,13.61,0,0,0-1.25,4.37" transform="translate(-4.16 -27.24)"/><path class="cls-8" d="M124.65,125.27a30,30,0,0,0-2.06,4.89" transform="translate(-4.16 -27.24)"/><path class="cls-8" d="M125.88,126.43l-2.69,4" transform="translate(-4.16 -27.24)"/><path class="cls-8" d="M55.55,105.69q2.34,1.28,4.74,2.43a9.32,9.32,0,0,0,3.08,1.06c-1,2.14-.25,4.72-1,7,0,.08-.09.18-.17.17s0-.19,0-.11" transform="translate(-4.16 -27.24)"/><path class="cls-8" d="M48,113c0-.07-.12-.09-.17,0a.3.3,0,0,0-.06.22,31.78,31.78,0,0,1-.85,6.71,4.9,4.9,0,0,0,1.48.6" transform="translate(-4.16 -27.24)"/><path class="cls-8" d="M40.29,118.63a4.55,4.55,0,0,0,1.51.87l3.32,1.39-.36,4c0,.08,0,.19-.12.21s-.1-.17,0-.13" transform="translate(-4.16 -27.24)"/><path class="cls-8" d="M33.79,126.36c0-.15-.28,0-.27.15s.25.43.47.57a13.31,13.31,0,0,0,3.49,1.76l-.27-.3" transform="translate(-4.16 -27.24)"/><path class="cls-8" d="M34.77,124.52q1.47,1.7,3.09,3.25a.87.87,0,0,0,.63.31v-.36" transform="translate(-4.16 -27.24)"/><path class="cls-8" d="M36,122.26a.93.93,0,0,0,.1.46,11.28,11.28,0,0,0,2.43,3.64.89.89,0,0,0,.75.35v-.27" transform="translate(-4.16 -27.24)"/><path class="cls-8" d="M37.12,120.47A31.43,31.43,0,0,0,40,126.13c.16.24.37.51.65.49a2.24,2.24,0,0,0-.24-1.19" transform="translate(-4.16 -27.24)"/><path class="cls-8" d="M39.36,120.36c.67,1.92,1.42,3.8,2.27,5.65,0-.25,0-.5,0-.75" transform="translate(-4.16 -27.24)"/><path class="cls-8" d="M42.41,115.54c.9,1.48,2.46,2.48,3.34,4" transform="translate(-4.16 -27.24)"/><path class="cls-8" d="M49.64,113.11a47.48,47.48,0,0,1,3.43,3.52,11.2,11.2,0,0,1,1,1.28,5.21,5.21,0,0,1,.55,1.14" transform="translate(-4.16 -27.24)"/><path class="cls-8" d="M48.71,116a5.33,5.33,0,0,0,1.08,1l3.71,3c.14.11.3.28.22.44" transform="translate(-4.16 -27.24)"/><path class="cls-8" d="M48.35,118.39l2.66,2a6.52,6.52,0,0,0,1.57,1,.47.47,0,0,0,.2-.38" transform="translate(-4.16 -27.24)"/><path class="cls-8" d="M49.89,108.91a3.63,3.63,0,0,0,.75,1.07c2.25,2.54,4.71,5,6.06,8.12,0-.16,0-.32.07-.48" transform="translate(-4.16 -27.24)"/><path class="cls-8" d="M52.23,107a17.61,17.61,0,0,1,4.93,7.48,11.8,11.8,0,0,0,1.53,3.61" transform="translate(-4.16 -27.24)"/><path class="cls-8" d="M57.81,109.14a24.41,24.41,0,0,1,2.12,7.75l.12-.54" transform="translate(-4.16 -27.24)"/><path class="cls-8" d="M59.42,102.7A18.6,18.6,0,0,0,61,106.33c.16.29.42.62.75.55" transform="translate(-4.16 -27.24)"/><path class="cls-8" d="M61.93,101.35q1.74,6.34,4,12.55" transform="translate(-4.16 -27.24)"/><path class="cls-8" d="M63.6,110c.41,1.62.88,3.23,1.43,4.81,0-.16,0-.31,0-.46" transform="translate(-4.16 -27.24)"/><path class="cls-8" d="M66.44,111a30.67,30.67,0,0,0,1,3.12" transform="translate(-4.16 -27.24)"/><path class="cls-8" d="M63.92,101.8q.89,2.6,1.75,5.18" transform="translate(-4.16 -27.24)"/><path class="cls-8" d="M86.85,98.24a59.08,59.08,0,0,1-.38,9.68,20.38,20.38,0,0,0-.27,4.61,2.22,2.22,0,0,0-.89,0c0-1.94.09-3.88.13-5.82" transform="translate(-4.16 -27.24)"/><path class="cls-8" d="M85.26,97.88l.1,4.46" transform="translate(-4.16 -27.24)"/><path class="cls-8" d="M82.51,95.06c.33,2,.67,4,1,6" transform="translate(-4.16 -27.24)"/><path class="cls-8" d="M93.47,102.35A43.82,43.82,0,0,1,93.23,115c0-.18,0-.36,0-.54" transform="translate(-4.16 -27.24)"/><path class="cls-8" d="M90.88,105.43l.6,7.17.12,1.47" transform="translate(-4.16 -27.24)"/><path class="cls-8" d="M95.18,115.06A66.05,66.05,0,0,0,97.9,99.79" transform="translate(-4.16 -27.24)"/><path class="cls-8" d="M96.33,102A71.63,71.63,0,0,1,96,109.3a6.55,6.55,0,0,1-.52,2.23" transform="translate(-4.16 -27.24)"/><path class="cls-8" d="M99.56,102.61a36.31,36.31,0,0,1-2.38,12.62" transform="translate(-4.16 -27.24)"/><path class="cls-8" d="M98.62,115.62a49.41,49.41,0,0,0,3.15-8.37" transform="translate(-4.16 -27.24)"/><path class="cls-8" d="M103.57,107.53a12.61,12.61,0,0,1-2.3,5.83" transform="translate(-4.16 -27.24)"/><path class="cls-8" d="M106.89,104.61c-.18.94-.35,1.89-.52,2.83" transform="translate(-4.16 -27.24)"/><path class="cls-8" d="M109,107.39q-1.67,3.51-3.48,6.94a6,6,0,0,1-1.83,2.36" transform="translate(-4.16 -27.24)"/><path class="cls-8" d="M104.42,113.52c-.6,1.13-1.2,2.25-1.79,3.38" transform="translate(-4.16 -27.24)"/><path class="cls-8" d="M122.17,117.89q-1,2.35-2.18,4.64" transform="translate(-4.16 -27.24)"/><path class="cls-6" d="M171.88,35.16a3.89,3.89,0,0,1-.3-2.87,7.9,7.9,0,0,1,2.33-3.21,3.21,3.21,0,0,1,2.07-.64c.71.06,2,.19,2.38.21s2.08.18,2.73.19.8.4,1.78,0,1.58-.84,2.21-1.07a4.86,4.86,0,0,1,2.84.76,3,3,0,0,0,1.77.68,3.93,3.93,0,0,1,2.82,1.89c.81,1.29.89.81,1.51,1.12a2.62,2.62,0,0,1,1.4,1.24,4.53,4.53,0,0,1,.41,2.09A5.67,5.67,0,0,0,197.77,39a37.56,37.56,0,0,0,6.3,3.31c1.28.43,1.75,1.16,2.54,1.39s.89,0,1.79.26a11.42,11.42,0,0,1,5.32,2.16c2.82,1.94,5.38,3.56,6.71,4.63s1.61,1.64,2.91,2.3a37.94,37.94,0,0,0,4.11,1.84c1.09.38,4.33,3.06,6,5.7s1.31,4.44,3.23,6.17a17.38,17.38,0,0,1,4.42,7.72c.49,2.32.69,3.31,1.26,5.8S243,85,243.9,87.79s2.3,7.67,3.15,9.37,2.52,5.4,5.82,6,7-1.12,7.22-.49-3.76,3.8-8.23,4-12.14-5.37-16.79-15.08-8-9.49-8-9.49-.36,1.33.09,1.82,2.45,1,3.4,1.79a6.12,6.12,0,0,1,2.64,3.38,15.53,15.53,0,0,0,1.41,4.13,8.83,8.83,0,0,0,2.44,3c.57.48,1.11.62,1.13,1.56a4.29,4.29,0,0,1-.29,2.15,10.85,10.85,0,0,0-.49,4c.07,1.59.4,2.68.12,3.59s-1.09,1.86-1.1,2.4.24.74-.34.85-2.33.37-2.8.47-.93-.51-.93-.51-1.53.07-2.23.13-1.37-.13-1.64.19-1.45.3-1.45.3l0-1.24s-2.08-.06-2.45.38.82-2.14,1.91-2.52,2.69-.34,3.42-.76a5.65,5.65,0,0,0,2.6-3.52,11.75,11.75,0,0,0,.17-3.68,6.64,6.64,0,0,1,.05-1.54A1.89,1.89,0,0,0,231.8,97c-.5-.25-10-8.49-11-9s-1.33-.36-1.56-1.64A37.32,37.32,0,0,0,218,81.93c-.32-.92-.67-2.31-.74-2.48s-2,1.17-3.69,1.78-3.48.77-3.83,1.51a3,3,0,0,0,.15,3.23,4.81,4.81,0,0,1,1.3,3.61,36.77,36.77,0,0,1-.36,4.11,9.3,9.3,0,0,0-.24,3.5c.2,1,.29,2,.48,3a2.89,2.89,0,0,1-.39,2.33,4.4,4.4,0,0,0-1,1.15,12.24,12.24,0,0,0,0,1.71c0,1,0,1.24-.5,1.87s-1.07,1.33-1.07,1.33l-.46-3.44s-.34-.5-1.36,1.41-.61,1.88-1.14,2.64-3.28,1-4.28,1-4.31.13-4.31.13a15.81,15.81,0,0,1-2,.4c-.65,0-1.35,0-1.35,0l.79-1.13-2.25.66a10.47,10.47,0,0,1,1.14-1.86,3.61,3.61,0,0,1,2.62-1.23c1.06,0,2.84.06,3.45-.34s1.74-1.09,2.74-1.89,1.3-.64,2-1.58a14.6,14.6,0,0,0,1-1.62,5.22,5.22,0,0,0,.51-2.41c.11-1.43.44-1.75-.9-5.77a49.37,49.37,0,0,1-2.07-7.15c-.07-.82.3-.56,0-1.48a6.47,6.47,0,0,1-.81-2.59,7,7,0,0,1,1.28-3.12c.56-1,1.78-3.45,2.6-4.88s2.3-4.27,2.3-4.27-5.49-3.5-7.32-5.65-2.48-2.86-3.06-3.46A23.05,23.05,0,0,0,195,59.22a7,7,0,0,1-1.06,1.45c-.6.58-3.36.1-3.89,0a10.23,10.23,0,0,0-2.51-.33c-.7.12-.71.06-1.41.83A13.89,13.89,0,0,0,185,62.59l-.32-.91s-.85,1.07-.72.53a7.49,7.49,0,0,1,1.14-1.87c.48-.69.57-1.05,1.48-1.42a2.88,2.88,0,0,1,1.81-.27,8.63,8.63,0,0,0,1.07.09,18.5,18.5,0,0,0,1.95,0c.7-.06,1-.67.69-.94s-.74-.41-.91-.28a5.62,5.62,0,0,0-.54.58s0-.71-.17-.64a7.45,7.45,0,0,0-1,.67c-.17.13-.59,0-.13-.76a4.54,4.54,0,0,1,1.23-1.64c.5-.33.49-.45.85-.42s.83.11.83.11.29-.8.43-1.28.44-1.1.3-1.32a44.24,44.24,0,0,1-3.54-4.91c-.71-1.47-1.13-2.26-1.83-2.09s-1.79-.26-2.75.35-1.23.75-2,.64a3.28,3.28,0,0,1-1.78-.8c-.14-.28-1.32-.3-1.73-.15a4.05,4.05,0,0,1-3.2-.91,4.51,4.51,0,0,1-1.2-2.38c0-.48.1-1.55.49-1.11a1.39,1.39,0,0,0,.93.45s-.47-1.31,0-1.06.95.81,1,.62-.28-1.28.28-.91.81.52.81.52-.27-1.15,0-1a7.23,7.23,0,0,1,.74.41c.25.15-.13-.82.22-.91s.41,0,.67.24.48-.57.48-.57a5.32,5.32,0,0,0-1-.44c-.48-.14-.57-.43-.76-.65s-.82-.58-.84-.17-.91.49-.94.14-.25-.27-.53,0-.68,1-.8.3-.47-1.44-.54-.84-.37,1.21-.47.75a5.23,5.23,0,0,0-.38-1l-.77.06-.3-.8s-.47.75-.49.51-.22-1.22-.22-1.22l-.35.68Z" transform="translate(-4.16 -27.24)"/><path class="cls-8" d="M176.61,42.36a12.15,12.15,0,0,0,3.4-1.28,18.9,18.9,0,0,1,2.61-1.43,12.68,12.68,0,0,0,2-.73c.59-.34,1.06-.89,1.67-1.2.87-.43,2-.4,2.59-1.19a.31.31,0,0,0,.07-.2c0-.16-.24-.19-.41-.16a13,13,0,0,1-2.63.28c-1.39-.1-2.66-.93-4.06-1-1.18-.05-2.4.45-3.51,0a7.8,7.8,0,0,1-1.3-.77,6.06,6.06,0,0,0-2.74-.91c-.83-.06-1.82.16-2.12.93-.12.29,0,.7.26.76" transform="translate(-4.16 -27.24)"/><path class="cls-8" d="M173.36,34.51a.85.85,0,0,0,.56,1,6.66,6.66,0,0,1,.39-.86" transform="translate(-4.16 -27.24)"/><path class="cls-8" d="M174.46,34.83a1.33,1.33,0,0,0,.27,1,3.36,3.36,0,0,0,.65-1.05,1.54,1.54,0,0,0,.46,1.2,2.2,2.2,0,0,0,.55-1.11l.26,1.14c0,.19.19.44.36.35a.34.34,0,0,0,.13-.18c.1-.24.21-.49.31-.74,0,.48,0,1.07.47,1.29l.3-.88a2.86,2.86,0,0,0,.48,1.36,1.39,1.39,0,0,0,.33-1.07c.21.28.1.79.42.91a.42.42,0,0,0,.49-.29,1.23,1.23,0,0,0,0-.63,1.13,1.13,0,0,0,.6.94,2.43,2.43,0,0,0,.24-1l.47.64a1,1,0,0,0,.39-.58l.24.52.39-.46a.39.39,0,0,0,.39.45.38.38,0,0,0,.32-.49,2.6,2.6,0,0,0,.3.93,2.64,2.64,0,0,0,.58-.67l.25.89a.87.87,0,0,0,.45-.59.9.9,0,0,0,.44.84.56.56,0,0,1,.17-.36l.18.41a1.41,1.41,0,0,0,.21-.94" transform="translate(-4.16 -27.24)"/><path class="cls-8" d="M180.61,40.52a1.84,1.84,0,0,1,.75-1.34,3.83,3.83,0,0,0,.4.78,1.85,1.85,0,0,1,.19-1c0-.06.08-.13.15-.14s.19.11.23.22.17.42.25.63a1.87,1.87,0,0,1,.13-1.07c0-.08.08-.16.16-.15a.18.18,0,0,1,.11.1l.52.75a2.7,2.7,0,0,1,.07-1.26c.35,0,.51.45.59.79a1.81,1.81,0,0,1,.26-1.09c.15,0,.25.14.3.28s.1.31.24.35.1-.16.11-.09" transform="translate(-4.16 -27.24)"/><path class="cls-8" d="M174.72,29.88a8.52,8.52,0,0,0-1.06,1.26c-.11.15-.21.39-.07.52" transform="translate(-4.16 -27.24)"/><path class="cls-8" d="M183.94,30.81a4.66,4.66,0,0,1,1.39-1.57,1.38,1.38,0,0,1,.74-.3,1.25,1.25,0,0,1,.76.33,2.75,2.75,0,0,1,.88,1.31,1.09,1.09,0,0,1-.1,1,1.17,1.17,0,0,1-.43.29,4.48,4.48,0,0,1-.72.28,1.24,1.24,0,0,1-.54.07.51.51,0,0,1-.41-.31" transform="translate(-4.16 -27.24)"/><path class="cls-8" d="M184.64,30.84a2.42,2.42,0,0,1,2.09-.3,2.09,2.09,0,0,1,0,.66" transform="translate(-4.16 -27.24)"/><path class="cls-8" d="M185.25,30.38a.58.58,0,0,1,.66-.54,1,1,0,0,0,.1.56" transform="translate(-4.16 -27.24)"/><path class="cls-8" d="M184.33,31a2.61,2.61,0,0,0,.18,1.08.88.88,0,0,0,.87.54" transform="translate(-4.16 -27.24)"/><path class="cls-8" d="M184.44,32.73a2.09,2.09,0,0,0,.79.32,3.94,3.94,0,0,0,2-.29,2.54,2.54,0,0,0,1.42-.95,2.65,2.65,0,0,0,.12-1.72" transform="translate(-4.16 -27.24)"/><path class="cls-8" d="M189.43,32.68a3.3,3.3,0,0,1-3.32,1.78" transform="translate(-4.16 -27.24)"/><path class="cls-8" d="M180.71,45.43a4.9,4.9,0,0,0,3-.79,20.66,20.66,0,0,1,2.72-1.51c.51-.2,1-.32,1.55-.53a5.08,5.08,0,0,0,2-1.47,1.77,1.77,0,0,0,.5-1.39" transform="translate(-4.16 -27.24)"/><path class="cls-8" d="M185.89,40a17.61,17.61,0,0,1-2.32,1.54,6,6,0,0,1-2.66.75" transform="translate(-4.16 -27.24)"/><path class="cls-8" d="M188.73,40.55a1.94,1.94,0,0,1-.58,1.89.17.17,0,0,1-.08-.18" transform="translate(-4.16 -27.24)"/><path class="cls-8" d="M189.36,40.12a2.2,2.2,0,0,1,.1,1.08c0,.25-.18.55-.43.55" transform="translate(-4.16 -27.24)"/><path class="cls-8" d="M191.2,35.28a1.53,1.53,0,0,0,.9-.54c.1-.13.17-.27.28-.39a1.18,1.18,0,0,1,1.43-.25" transform="translate(-4.16 -27.24)"/><path class="cls-8" d="M195.31,34.21a2.37,2.37,0,0,1-.84,3.48" transform="translate(-4.16 -27.24)"/><path class="cls-8" d="M195.27,35.44a4.62,4.62,0,0,1-3.06,2.75" transform="translate(-4.16 -27.24)"/><path class="cls-8" d="M194.83,39.63a6,6,0,0,1-1.17,1.88,8.22,8.22,0,0,1-1.58,1.22l-.39.25a5.38,5.38,0,0,0-1.79,1.59" transform="translate(-4.16 -27.24)"/><path class="cls-8" d="M191.73,44.17l1.25-.86a6.65,6.65,0,0,0,2.87-3.05" transform="translate(-4.16 -27.24)"/><path class="cls-8" d="M196.43,40a4.11,4.11,0,0,1-.26,2.61,4.17,4.17,0,0,1-1.78,1.93" transform="translate(-4.16 -27.24)"/><path class="cls-8" d="M197.59,42.52a5,5,0,0,1-1.4,3" transform="translate(-4.16 -27.24)"/><path class="cls-8" d="M197.42,50.16c-.81,2-.64,4.32-.84,6.51a.84.84,0,0,1-.26.62.75.75,0,0,1-.79-.11A11.78,11.78,0,0,0,193.65,56c-.57-.2-1.29-.25-1.59-.77" transform="translate(-4.16 -27.24)"/><path class="cls-8" d="M192.26,57.74l1.39.51a20.12,20.12,0,0,1,4,1.84,2.76,2.76,0,0,0,1.78.7,1.68,1.68,0,0,0,1.2-1,6.36,6.36,0,0,0,.37-1.62,10.65,10.65,0,0,1,1-3.28,16.34,16.34,0,0,0,.86-1.66,4.12,4.12,0,0,0-.64-3.93" transform="translate(-4.16 -27.24)"/><path class="cls-8" d="M203.36,50.25a3.93,3.93,0,0,1,0,2.62,5,5,0,0,1-.58,1.59,1.76,1.76,0,0,1-1.38.86" transform="translate(-4.16 -27.24)"/><path class="cls-8" d="M204.24,52.07a2.21,2.21,0,0,1-.15,1.13,5.94,5.94,0,0,1-1,1.92,3,3,0,0,1-1.83,1.08" transform="translate(-4.16 -27.24)"/><path class="cls-8" d="M198.71,44.9a4.76,4.76,0,0,1-2.64,2.8" transform="translate(-4.16 -27.24)"/><path class="cls-8" d="M198.54,46.86A3.27,3.27,0,0,1,197,48.28" transform="translate(-4.16 -27.24)"/><path class="cls-8" d="M200.35,43.77a2.6,2.6,0,0,1-.17,1.43" transform="translate(-4.16 -27.24)"/><path class="cls-8" d="M203.05,45.4a4.59,4.59,0,0,1,3.47-1.35" transform="translate(-4.16 -27.24)"/><path class="cls-8" d="M203.3,44.5a9.13,9.13,0,0,1,1.36-.77,2.75,2.75,0,0,1,1.52-.19" transform="translate(-4.16 -27.24)"/><path class="cls-8" d="M204.09,43.44a.78.78,0,0,1,.93-.29" transform="translate(-4.16 -27.24)"/><path class="cls-8" d="M208,70.16l2.07.77a4.58,4.58,0,0,1,1.07.51c1.8,1.27,1.11,4.43,2.83,5.81a5.86,5.86,0,0,0,2.22.76c.68.22.82.67,1.21,1.23" transform="translate(-4.16 -27.24)"/><path class="cls-8" d="M217.1,78.38q-.61-2.64-1.24-5.29a8.41,8.41,0,0,0-.43-1.46c-.65-1.52-2.13-2.58-2.75-4.12" transform="translate(-4.16 -27.24)"/><path class="cls-8" d="M215.37,71.18c-.32-1-1-1.67-1.19-2.73-.1-.63-.07-1.28-.21-1.9" transform="translate(-4.16 -27.24)"/><path class="cls-8" d="M215.51,71.68a16.57,16.57,0,0,1,0-6.8" transform="translate(-4.16 -27.24)"/><path class="cls-8" d="M216.31,68.13a1.82,1.82,0,0,1,0-1.06c.44-2,1.05-4.19.41-6.18" transform="translate(-4.16 -27.24)"/><path class="cls-8" d="M217.73,60.8l.3,3.58" transform="translate(-4.16 -27.24)"/><path class="cls-8" d="M220.4,64.43a37.47,37.47,0,0,1,.88,13.46,11.86,11.86,0,0,0-.19,3.36,6.18,6.18,0,0,1,.16,1.42,1.16,1.16,0,0,1-.8,1.07" transform="translate(-4.16 -27.24)"/><path class="cls-8" d="M219.45,82.09a2.54,2.54,0,0,0,.85,1,.51.51,0,0,0,.35.13c.13,0,.26-.13.23-.25" transform="translate(-4.16 -27.24)"/><path class="cls-8" d="M219.82,81.59a1.81,1.81,0,0,0,1.14.92,1.94,1.94,0,0,1,0-.24" transform="translate(-4.16 -27.24)"/><path class="cls-8" d="M220.22,81.05l.51.44" transform="translate(-4.16 -27.24)"/><path class="cls-8" d="M219.55,84.45a3.25,3.25,0,0,0,.9,2.23,1.16,1.16,0,0,0,1.24.4,3.6,3.6,0,0,1,.37-.22.67.67,0,0,1,.61.1,2.13,2.13,0,0,1,.45.45" transform="translate(-4.16 -27.24)"/><path class="cls-8" d="M220.31,85.16a1.85,1.85,0,0,0,.87,1.66l.13-.15" transform="translate(-4.16 -27.24)"/><path class="cls-8" d="M221.71,85.81a4.68,4.68,0,0,1,.45,1" transform="translate(-4.16 -27.24)"/><path class="cls-8" d="M225.1,85a3.69,3.69,0,0,1-.45-2.21,10.59,10.59,0,0,1,.5-2.23" transform="translate(-4.16 -27.24)"/><path class="cls-8" d="M225.66,81.73l.42-1.88a8.56,8.56,0,0,0,.29-2,10.61,10.61,0,0,0-.29-2,21.53,21.53,0,0,1-.24-6.56" transform="translate(-4.16 -27.24)"/><path class="cls-8" d="M226,74.23c.15-1.74,1.35-3.27,1.41-5a24.34,24.34,0,0,1-.19-3.18c.07-.4.22-.79.31-1.19a4.66,4.66,0,0,0-.62-3.62" transform="translate(-4.16 -27.24)"/><path class="cls-8" d="M227.15,81.69a7.79,7.79,0,0,1,1.23-3.92,21.5,21.5,0,0,0,2.1-8.26,4.11,4.11,0,0,1,.16-1.16,5.42,5.42,0,0,1,.32-.69,6.8,6.8,0,0,0,0-6.09" transform="translate(-4.16 -27.24)"/><path class="cls-8" d="M208.24,85.38a3.36,3.36,0,0,1-.24-1.59,2.75,2.75,0,0,1,.62-1.18,2.63,2.63,0,0,1,.66-.63c.89-.55,2.13-.19,3-.74" transform="translate(-4.16 -27.24)"/><path class="cls-8" d="M202.35,83a3,3,0,0,0,.32,1.38,1.1,1.1,0,0,0,.35.42c.11.07.25.11.36.18a1.23,1.23,0,0,1,.38.85,6.74,6.74,0,0,0,2.08,3.73" transform="translate(-4.16 -27.24)"/><path class="cls-8" d="M209.17,87.35a2.68,2.68,0,0,1,.18,3.14,4,4,0,0,0-.73,1.17,2.32,2.32,0,0,0,0,.59c.05,1.28.13,2.57.23,3.85" transform="translate(-4.16 -27.24)"/><path class="cls-8" d="M205.52,91.24a2.35,2.35,0,0,0,.36,1.13,18.39,18.39,0,0,1,1.54,4.32" transform="translate(-4.16 -27.24)"/><path class="cls-8" d="M207.82,99.26a15.83,15.83,0,0,1-.17,2.73,2.82,2.82,0,0,1,0,.58,2.5,2.5,0,0,1-.19.52,2.09,2.09,0,0,0,0,1.33" transform="translate(-4.16 -27.24)"/><path class="cls-8" d="M204.94,104c-1.17.63-1.75,2.12-3,2.63a4.79,4.79,0,0,1-.9.24,3,3,0,0,1-2-.09" transform="translate(-4.16 -27.24)"/><path class="cls-8" d="M194.15,109.66a4,4,0,0,1,1.4-1.12,1.8,1.8,0,0,1,1.22-.3" transform="translate(-4.16 -27.24)"/><path class="cls-8" d="M195.42,109a1.56,1.56,0,0,1,.72,1.14" transform="translate(-4.16 -27.24)"/><path class="cls-8" d="M193.23,108.26a2.27,2.27,0,0,1,1,.92" transform="translate(-4.16 -27.24)"/><path class="cls-8" d="M227.14,110a3,3,0,0,1,2.41-1.72" transform="translate(-4.16 -27.24)"/><path class="cls-8" d="M226.23,108.1a1.75,1.75,0,0,1,1.11,1.11" transform="translate(-4.16 -27.24)"/><path class="cls-8" d="M228.32,109.19a1.68,1.68,0,0,1,.45,1.37" transform="translate(-4.16 -27.24)"/><path class="cls-8" d="M232.78,110.45a1.57,1.57,0,0,1,.83-1.94,2.06,2.06,0,0,0,.7-.33,1.3,1.3,0,0,0,.28-.5,13.93,13.93,0,0,0,.66-5.87" transform="translate(-4.16 -27.24)"/><path class="cls-8" d="M234.32,101.94l-.44,2.17a10,10,0,0,1-.26,1.08,8.7,8.7,0,0,1-.5,1.18A3.8,3.8,0,0,1,232,108" transform="translate(-4.16 -27.24)"/><path class="cls-8" d="M226.35,85.64a23.16,23.16,0,0,1,4.54,3,9.72,9.72,0,0,1,3,4.42" transform="translate(-4.16 -27.24)"/><path class="cls-8" d="M230.44,85.66A3,3,0,0,1,231,88" transform="translate(-4.16 -27.24)"/><path class="cls-8" d="M231.9,86.91a3.28,3.28,0,0,1-.05,1.36" transform="translate(-4.16 -27.24)"/><path class="cls-8" d="M232.38,87.75a1.64,1.64,0,0,1-.09,1.07" transform="translate(-4.16 -27.24)"/><path class="cls-8" d="M232.71,88.9a.51.51,0,0,1-.15.31" transform="translate(-4.16 -27.24)"/><path class="cls-8" d="M229.91,85.77c.06.39.11.78.17,1.17" transform="translate(-4.16 -27.24)"/><path class="cls-8" d="M226.08,89.64a5.26,5.26,0,0,0,1.37,1.45c1.62,1.15,3.84,1.37,5.25,2.77.43.42.82,1,1.41,1.1" transform="translate(-4.16 -27.24)"/><path class="cls-8" d="M230.46,90.62a1.15,1.15,0,0,1-.72,1.42" transform="translate(-4.16 -27.24)"/><path class="cls-8" d="M231.35,91.24A2.46,2.46,0,0,1,231,92a.78.78,0,0,1-.73.3" transform="translate(-4.16 -27.24)"/><path class="cls-8" d="M232.09,92.13a1.32,1.32,0,0,0-.38.46c-.11.16-.3.32-.49.27l0-.23" transform="translate(-4.16 -27.24)"/><path class="cls-8" d="M232.73,93.44l-.21.2" transform="translate(-4.16 -27.24)"/><path class="cls-8" d="M233.19,93.88l-.05.13" transform="translate(-4.16 -27.24)"/><path class="cls-8" d="M231.3,95l1.92,1.4a4,4,0,0,1,.55.45,3.75,3.75,0,0,1,.71,1.69" transform="translate(-4.16 -27.24)"/><path class="cls-8" d="M234.59,96.85a2.26,2.26,0,0,0,1.7,1.54" transform="translate(-4.16 -27.24)"/><path class="cls-8" d="M236.17,96.57a1.57,1.57,0,0,1,.75,2.27" transform="translate(-4.16 -27.24)"/><path class="cls-8" d="M233,70.66a23.22,23.22,0,0,1,6.55,9.41,10.2,10.2,0,0,1,.62,2.24c.11.8.07,1.62.2,2.42A12.16,12.16,0,0,0,241.58,88" transform="translate(-4.16 -27.24)"/><path class="cls-8" d="M236.24,66.33a9.77,9.77,0,0,1,.47,4.64" transform="translate(-4.16 -27.24)"/><path class="cls-8" d="M237.12,67.57a3.42,3.42,0,0,1,.54,2.62" transform="translate(-4.16 -27.24)"/><path class="cls-8" d="M238.22,68.75a2,2,0,0,1-.19,2.19" transform="translate(-4.16 -27.24)"/><path class="cls-8" d="M239,70a.86.86,0,0,1,0,.84,2.1,2.1,0,0,1-.85,1" transform="translate(-4.16 -27.24)"/><path class="cls-8" d="M239.53,70.85a1.56,1.56,0,0,1-.73,1.58" transform="translate(-4.16 -27.24)"/><path class="cls-8" d="M239.84,72.42a1.28,1.28,0,0,1-.29.73" transform="translate(-4.16 -27.24)"/><path class="cls-8" d="M240.25,73a2.09,2.09,0,0,1-.47.91" transform="translate(-4.16 -27.24)"/><path class="cls-8" d="M229.29,78.39a3.59,3.59,0,0,1,1.69.81,16.94,16.94,0,0,1,3.83,4" transform="translate(-4.16 -27.24)"/><path class="cls-8" d="M228.37,79.4s-.05,0,0,0,0,0,.07,0a2.2,2.2,0,0,1,1.58.93" transform="translate(-4.16 -27.24)"/><path class="cls-8" d="M251.48,102.81l0-.35" transform="translate(-4.16 -27.24)"/><path class="cls-8" d="M252.23,102.94a1.9,1.9,0,0,1,.67.79,1,1,0,0,1,.1.66.55.55,0,0,1-.47.42" transform="translate(-4.16 -27.24)"/><path class="cls-8" d="M253.22,103.48a1.73,1.73,0,0,1,.2,1.24" transform="translate(-4.16 -27.24)"/><path class="cls-8" d="M254.26,103.67c.2,0,.24.29.21.48" transform="translate(-4.16 -27.24)"/><path class="cls-8" d="M255.17,103.86c0,.1,0,.2,0,.29" transform="translate(-4.16 -27.24)"/><path class="cls-7" d="M285.77,88.19s-1.89-1.6-1.51-3,2.78-3.09,4.56-3.76,4.44-1.82,4.78-2,4.23-1.35,7-.14,4.56,2.6,5.24,4.83,1.95,4.66,2.35,5.77A6.82,6.82,0,0,0,310.52,93c.7.3,5.61,1,7.72,2.31s13.41,7,16.55,8.44,9.62,6.29,11,6.79,6.39,5.11,8.07,6.72,10.54,10.79,13.54,13.92S386.8,144.13,391,146.74s11.83,5,29.92,6.15c.34,0,3.1.74-.14,1.7s-28.7,2-42.65-2.41-22.65-6-24.24-6-3.19-.29-3.72.53,0,1.36.81,2.45,2.15,1.93,2.21,3.18,0,1.25,0,2.6a17.84,17.84,0,0,0,.41,3.5c.3,1.23.68,2-.18,2.95s-.93,1.75-1.48,2.12-1,.51-1.43.87-1.28,1.43-1.3,1.09,0-1.7,0-1.7a7.63,7.63,0,0,1-1.9.44c-.35-.1-1.31,1-1.31,1s-.76-1.54-.45-2,.49-1.5,1.14-2.1a8.22,8.22,0,0,0,1.36-2.23,3.92,3.92,0,0,0,.06-3.18c-.38-.77-4.58-5.09-5.42-6.06s-4.34-4.77-4.34-4.77l-7.28-2.68s.27,5.09.23,6.46a4,4,0,0,0,.69,2.45c.39.89,1,1.31.45,2.13a6.74,6.74,0,0,0-1,2,11.85,11.85,0,0,0-.19,2.73c-.08.8.19,1.58-.67,2.41a5.57,5.57,0,0,1-2.08,1.36,2.73,2.73,0,0,0-1.3,1.32c-.41.7-2.57.59-2.57.59l.12-1.94a1,1,0,0,0-1.36.07,10.74,10.74,0,0,1-2.41,1.6s0-2.49.86-3.22a30.2,30.2,0,0,1,3.17-2.2c1-.62,2.19-1.37,2.37-2.4a12.78,12.78,0,0,0-1-5.39c-.78-2-2.38-6.45-3.13-7.89a11.71,11.71,0,0,1-.87-5.85c-.13-.22-5.22-7.83-3.8-5.24.2.35-2.48-4.53-3.57-5.37-.89-.7-4.93-5.53-4.93-5.53a12.74,12.74,0,0,0-3.66,1.67,5.2,5.2,0,0,0-1.57,2.46c-.19.81-.53,3-.53,3l-.92-2.56a24,24,0,0,1-2.72,2.3c-1,.62.16-1.26.16-1.26l-1.54.88a7.79,7.79,0,0,1-1.83,1.79c-1.21.86-2,2-2,1.24a4.83,4.83,0,0,0-.56-2s-1.08,1-.9.05A29.4,29.4,0,0,1,295.7,124a5.22,5.22,0,0,0,.24-1.94c-.15-.67-.73-3-.73-3s1,2.1,2.15,2,2.05.12,2.92-.5a5.59,5.59,0,0,0,1.49-2l-1-2.44s1.25,2.09,2.12,1.47a20.17,20.17,0,0,0,2-1.35c.54-.48,1.44-.75-.09-1.69s-4.31-4.31-5-5.3a5.72,5.72,0,0,1-.85-3.24c0-1,.15-3.64,0-4.65a3.86,3.86,0,0,0-1.47-2.19,4.51,4.51,0,0,1-1.16-2.66c-.17-1.12-.07-1.24-1.12-1.87s-.47-.31-1.45-1.74-.81-2.45-1.2-3.34-.63-1.32-1.43-1.39-1.84-.36-2.17-.34a8.88,8.88,0,0,0-1.56.53Z" transform="translate(-4.16 -27.24)"/><path class="cls-9" d="M309.69,119.72c.41.28.82,0,1.28-.15a23,23,0,0,0,5.82-3.45,3,3,0,0,0,1.44-2.36,2.93,2.93,0,0,0-.66-1.44,15.73,15.73,0,0,0-2.45-2.64,5.59,5.59,0,0,1-1.18-1.2,2.39,2.39,0,0,1-.08-2.33s-1-3.12-2.47-3.78-7.17,1.84-7.49,3.58a5.69,5.69,0,0,0,2.59,5.24c1.73,1,3.83,1.47,3.71,2.26s-1.84,1.57-2.32,2.11-1.8-.28-1.8-.28l-4.17,3s-1.16,2.68-2,2.5-2.92.38-3.37,0-1.56-2.46-1.12-1a11.17,11.17,0,0,1,.43,3.73c-.13.48-1.38,2.24-1.51,3.57-.1,1,.85.29.85.29s.08.64.22,1.37c.16.9.63,1.07,1,.72,1-.86,3.21-2.87,3.6-3.09s.13,1.19.58.88,2.8-2.77,2.8-2.77l1,2.62s.55-3.37,1.15-4.11.4-1.44,1.53-1.73h0l2.58-1.51" transform="translate(-4.16 -27.24)"/><path class="cls-8" d="M304.1,108.42s0,.8,1.72,2.24a19.19,19.19,0,0,0,4,2.47c1,.58.43,1.23-1,1.93a21.72,21.72,0,0,0-2.87,1.68,17.91,17.91,0,0,0-1.55,1.15,1.94,1.94,0,0,1-1.5.26" transform="translate(-4.16 -27.24)"/><path class="cls-8" d="M291.41,88.29a22.24,22.24,0,0,1,4.08,0,3.47,3.47,0,0,0,2.45-.35,1.85,1.85,0,0,0,.69-1.41,2.47,2.47,0,0,0-.51-1.5" transform="translate(-4.16 -27.24)"/><path class="cls-8" d="M294.2,85.24a4.29,4.29,0,0,1-2,.22c-1-.13-2.06-.62-3.06-.36a5.9,5.9,0,0,0-1.35.68,8.23,8.23,0,0,1-2.25.88c-.16,0-.4,0-.41-.15" transform="translate(-4.16 -27.24)"/><path class="cls-8" d="M285.64,84.21c.12.13.06.34,0,.49a.74.74,0,0,0-.17.48c0,.17.34.24.37.07" transform="translate(-4.16 -27.24)"/><path class="cls-8" d="M295.09,87l.65,0a2.47,2.47,0,0,0,1.37-.33.87.87,0,0,0,.24-1.23" transform="translate(-4.16 -27.24)"/><path class="cls-8" d="M294.29,81.89a4.85,4.85,0,0,0-1.89-.2" transform="translate(-4.16 -27.24)"/><path class="cls-8" d="M292.33,82.25a3.57,3.57,0,0,0,1.49.41,1.29,1.29,0,0,0,1.23-.8" transform="translate(-4.16 -27.24)"/><path class="cls-8" d="M295.7,81.46l1.71,1.7" transform="translate(-4.16 -27.24)"/><path class="cls-8" d="M299.34,86.29a5.11,5.11,0,0,1-.27,2.51c-.25.68-.64,1.29-.9,2a2.74,2.74,0,0,0-.1,2.1" transform="translate(-4.16 -27.24)"/><path class="cls-8" d="M297,90.64a12.1,12.1,0,0,0,.24,4.71c.09.51.18,1,.28,1.54a4.46,4.46,0,0,0,.45,1.48" transform="translate(-4.16 -27.24)"/><path class="cls-8" d="M303.88,98.21a30.44,30.44,0,0,0,3.84-2.44c.43-.26.95-.27,1.37-.51a5,5,0,0,0,1.42-1.81" transform="translate(-4.16 -27.24)"/><path class="cls-8" d="M355,127.94a4.19,4.19,0,0,1-.06,2,14.08,14.08,0,0,1-5.21,8.12,4.75,4.75,0,0,0-1.44,1.38,3.65,3.65,0,0,0-.27,2.2,16.85,16.85,0,0,0,1.45,5.21" transform="translate(-4.16 -27.24)"/><path class="cls-8" d="M338.07,143.71c-1.93-2-3.68-4.44-3.92-7.22-.26-3.11,1.41-6.21.82-9.27a11.77,11.77,0,0,1-.54-2.84,6.09,6.09,0,0,1,.91-2.51,12.26,12.26,0,0,1,2.77-3.85" transform="translate(-4.16 -27.24)"/><path class="cls-8" d="M336.79,115.39c-.38,1-.89,1.89-1.2,2.88a16.55,16.55,0,0,0-.41,1.72l-.48,2.48a10,10,0,0,0-.28,2.37" transform="translate(-4.16 -27.24)"/><path class="cls-8" d="M335.08,115.56a14.24,14.24,0,0,0-.52,12" transform="translate(-4.16 -27.24)"/><path class="cls-8" d="M348.7,124.16l-.08.19c1.15,1.9.5,4.29-.47,6.29a8.5,8.5,0,0,1-1.31,2c-.37.4-.81.74-1.15,1.17-1.23,1.52-1,3.71-.63,5.63" transform="translate(-4.16 -27.24)"/><path class="cls-8" d="M345.9,135.94a2.36,2.36,0,0,1,.93-1.6,10,10,0,0,1,1.63-1,6.24,6.24,0,0,0,2-1.68,3,3,0,0,0,.56-2.51" transform="translate(-4.16 -27.24)"/><path class="cls-8" d="M348.56,128.53a2.92,2.92,0,0,0,2.32-2.51" transform="translate(-4.16 -27.24)"/><path class="cls-8" d="M324.88,161.76a1.66,1.66,0,0,1,.83-1.48c.48-.36,1-.7,1.23-1.26" transform="translate(-4.16 -27.24)"/><path class="cls-8" d="M326.56,161.16c-.07,0,0-.11,0-.13a1,1,0,0,1,1.21.84" transform="translate(-4.16 -27.24)"/><path class="cls-8" d="M327.73,159.86a1.4,1.4,0,0,1,1.19,1.3c0,.06,0,.14-.07.16s-.11-.1-.05-.1" transform="translate(-4.16 -27.24)"/><path class="cls-8" d="M328.83,158.41a3.32,3.32,0,0,1,1.69,1.53" transform="translate(-4.16 -27.24)"/><path class="cls-8" d="M349.35,163.87a4.23,4.23,0,0,1,1.54-3.36" transform="translate(-4.16 -27.24)"/><path class="cls-8" d="M350.77,162a1.41,1.41,0,0,1,1.23.71" transform="translate(-4.16 -27.24)"/><path class="cls-8" d="M351.77,160.85a1.45,1.45,0,0,1,1.13,1.22" transform="translate(-4.16 -27.24)"/><path class="cls-8" d="M351.3,158.4a2.11,2.11,0,0,1,2.12,1.23" transform="translate(-4.16 -27.24)"/><path class="cls-8" d="M350.57,146a4,4,0,0,1,.5-4.6" transform="translate(-4.16 -27.24)"/><path class="cls-8" d="M352.07,146.27a8.92,8.92,0,0,1,.68-3.42" transform="translate(-4.16 -27.24)"/><path class="cls-8" d="M351.37,146.23c0,.08,0,.23-.09.18a11,11,0,0,1,.39-3.24" transform="translate(-4.16 -27.24)"/><path class="cls-8" d="M353.1,146.48a6.79,6.79,0,0,1,.76-2.71" transform="translate(-4.16 -27.24)"/><path class="cls-8" d="M357.86,140.94a4.55,4.55,0,0,1,2.35-2.16" transform="translate(-4.16 -27.24)"/><path class="cls-8" d="M359.48,141.56a4.17,4.17,0,0,1,2.43-2.45" transform="translate(-4.16 -27.24)"/><path class="cls-8" d="M374.2,136.41a11.73,11.73,0,0,0-2,3.72" transform="translate(-4.16 -27.24)"/><path class="cls-8" d="M376.08,137.23a5.91,5.91,0,0,1-.89,2.28" transform="translate(-4.16 -27.24)"/><path class="cls-8" d="M378.68,138.87a1.94,1.94,0,0,1-.39,1.9" transform="translate(-4.16 -27.24)"/><path class="cls-8" d="M351.53,120.55a5.37,5.37,0,0,1,2.25,4.06" transform="translate(-4.16 -27.24)"/><path class="cls-8" d="M341.06,115.07a3.36,3.36,0,0,1,1.72-.37,4.66,4.66,0,0,1,1.12.06c1.06.23,1.83,1.2,2.87,1.52" transform="translate(-4.16 -27.24)"/><path class="cls-8" d="M337,112.4a11.49,11.49,0,0,1,9,1.64,2.13,2.13,0,0,1,1.09,1.43" transform="translate(-4.16 -27.24)"/><path class="cls-8" d="M336.36,111.85a1.89,1.89,0,0,1,1.16-.77,5.51,5.51,0,0,1,3.69.18" transform="translate(-4.16 -27.24)"/><path class="cls-8" d="M320.18,114.64a11.11,11.11,0,0,1,3.21-.14,3.56,3.56,0,0,0,2.92-1.07" transform="translate(-4.16 -27.24)"/><path class="cls-8" d="M313.86,106.15a2.39,2.39,0,0,0,.08,2.33,5.59,5.59,0,0,0,1.18,1.2,15.73,15.73,0,0,1,2.45,2.64,2.93,2.93,0,0,1,.66,1.44,3,3,0,0,1-1.44,2.36,23,23,0,0,1-5.82,3.45,1.53,1.53,0,0,1-1.42.07" transform="translate(-4.16 -27.24)"/><path class="cls-8" d="M306.9,113.56a3.71,3.71,0,0,0,0,1.52" transform="translate(-4.16 -27.24)"/><path class="cls-8" d="M305.24,113.84a4.5,4.5,0,0,0,1.94,1.9" transform="translate(-4.16 -27.24)"/><path class="cls-8" d="M308,113.31c0,.3-.09.6-.13.9" transform="translate(-4.16 -27.24)"/><path class="cls-8" d="M314.72,109a18.75,18.75,0,0,0,2.37-3.74" transform="translate(-4.16 -27.24)"/><path class="cls-8" d="M314.76,109.51a28,28,0,0,0,3.24-3.88" transform="translate(-4.16 -27.24)"/><path class="cls-8" d="M315.54,110a13.18,13.18,0,0,0,4.06-3.32" transform="translate(-4.16 -27.24)"/><path class="cls-8" d="M312.55,103.34a14.88,14.88,0,0,1,1.18,4.39" transform="translate(-4.16 -27.24)"/><path class="cls-8" d="M313.3,103.19c.17-.06.32.13.39.29a7,7,0,0,1,.27,4.79" transform="translate(-4.16 -27.24)"/><path class="cls-8" d="M361.89,145.23a6.7,6.7,0,0,0-.2,1.61c0,.11.11.25.17.16" transform="translate(-4.16 -27.24)"/><path class="cls-8" d="M360,144.79a5.09,5.09,0,0,0-.36,1.54" transform="translate(-4.16 -27.24)"/><path class="cls-8" d="M361.33,145.06a1.2,1.2,0,0,0-.21.92c.05-.27.09-.54.14-.81" transform="translate(-4.16 -27.24)"/><path class="cls-8" d="M364.12,145.27a1.07,1.07,0,0,0-.31,1.2" transform="translate(-4.16 -27.24)"/><path class="cls-8" d="M366.08,146.34a3.05,3.05,0,0,0,.68,1.31" transform="translate(-4.16 -27.24)"/><path class="cls-8" d="M363.32,145.31a.55.55,0,0,0-.24.48l.24-.46" transform="translate(-4.16 -27.24)"/><path class="cls-8" d="M365.66,146.83a1.18,1.18,0,0,0,0,.81" transform="translate(-4.16 -27.24)"/><path class="cls-8" d="M368.26,147.22a1.05,1.05,0,0,0,.85.85" transform="translate(-4.16 -27.24)"/><path class="cls-8" d="M370.87,147.71A2.17,2.17,0,0,0,372.2,149" transform="translate(-4.16 -27.24)"/><path class="cls-8" d="M374.43,148.6a.81.81,0,0,0-.12.64" transform="translate(-4.16 -27.24)"/><path class="cls-8" d="M376.71,149.73l0,.35a.47.47,0,0,0,.36.07" transform="translate(-4.16 -27.24)"/><path class="cls-8" d="M379,150l.2.25" transform="translate(-4.16 -27.24)"/><path class="cls-8" d="M381.52,150.91h.18" transform="translate(-4.16 -27.24)"/><path class="cls-8" d="M299.78,121.13a14.24,14.24,0,0,0-3.13,3.57c1.09.28,2-1.15,3.12-1l-2.4,3c1.05-.29,1.93-1.24,3-1.12a5.48,5.48,0,0,1,0,1.07" transform="translate(-4.16 -27.24)"/><path class="cls-8" d="M302.57,108.43l1.21,1.59a7.89,7.89,0,0,0,1.87,2,2.61,2.61,0,0,0,2.57.24" transform="translate(-4.16 -27.24)"/><path class="cls-8" d="M306.23,119.41a6.65,6.65,0,0,1,0,1.89" transform="translate(-4.16 -27.24)"/><path class="cls-8" d="M307.32,119.48a3.73,3.73,0,0,1-.21,1.75" transform="translate(-4.16 -27.24)"/><path class="cls-8" d="M308.38,118.89v1.22" transform="translate(-4.16 -27.24)"/><path class="cls-8" d="M309.28,118.85a2.45,2.45,0,0,1,.21,1.19" transform="translate(-4.16 -27.24)"/><path class="cls-8" d="M310.39,119.19v.27" transform="translate(-4.16 -27.24)"/><path class="cls-8" d="M311.49,119.94a4.43,4.43,0,0,0,.83,2.5" transform="translate(-4.16 -27.24)"/><path class="cls-8" d="M327.56,139.51a8.39,8.39,0,0,0,3.65,2.37c.11,0,.3-.06.2-.13" transform="translate(-4.16 -27.24)"/><path class="cls-8" d="M322.76,132.23a15,15,0,0,0,2.68,3.9c.32.3.66.59,1,.87l.95.78,4,3.28a3,3,0,0,0,1.71.87" transform="translate(-4.16 -27.24)"/><path class="cls-8" d="M334.67,143.22a3.74,3.74,0,0,0,.83-2.26" transform="translate(-4.16 -27.24)"/><path class="cls-8" d="M336.52,142c-.23.6-.45,1.2-.67,1.8" transform="translate(-4.16 -27.24)"/><path class="cls-8" d="M334.53,139.27a2,2,0,0,1-.47,1.49" transform="translate(-4.16 -27.24)"/><path class="cls-8" d="M332.69,137.62c-.06.36-.13.73-.19,1.09" transform="translate(-4.16 -27.24)"/><path class="cls-8" d="M329.3,136.59c0,.27,0,.54,0,.81,0-.27,0-.54,0-.81" transform="translate(-4.16 -27.24)"/><path class="cls-8" d="M331.15,133.68l.3.66" transform="translate(-4.16 -27.24)"/><path class="cls-8" d="M333,132.77l0,.67,0-.67" transform="translate(-4.16 -27.24)"/><path class="cls-8" d="M330.32,122.44a28.39,28.39,0,0,0,4.69,9.07" transform="translate(-4.16 -27.24)"/><path class="cls-8" d="M330.93,127.54a21.24,21.24,0,0,0,3.36,5.08c.07.09.19.18.29.13s-.05-.25-.09-.14" transform="translate(-4.16 -27.24)"/><path class="cls-8" d="M355.85,132.22a14.44,14.44,0,0,1-6.85,7.37,2.5,2.5,0,0,0-1.13.86" transform="translate(-4.16 -27.24)"/><path class="cls-8" d="M383.55,149.19a4.7,4.7,0,0,0,.38,2.4" transform="translate(-4.16 -27.24)"/><path class="cls-8" d="M385.49,149c0,.85-.06,1.71-.1,2.56" transform="translate(-4.16 -27.24)"/><path class="cls-8" d="M387.11,150.88l.06,1.07" transform="translate(-4.16 -27.24)"/><path class="cls-8" d="M389.61,152.23a1.57,1.57,0,0,0,.17.93" transform="translate(-4.16 -27.24)"/><path class="cls-8" d="M391.64,151.85a2.88,2.88,0,0,0,.5,1.36" transform="translate(-4.16 -27.24)"/><path class="cls-8" d="M393,152.46a.7.7,0,0,0,.4.68" transform="translate(-4.16 -27.24)"/><path class="cls-8" d="M394.88,153.57l.14.4" transform="translate(-4.16 -27.24)"/><path class="cls-8" d="M397.18,153.44v.14" transform="translate(-4.16 -27.24)"/><path class="cls-8" d="M293.49,81.3a1.19,1.19,0,0,1,1.36.49" transform="translate(-4.16 -27.24)"/><path class="cls-10" d="M123.71,81.86s.39,15.17-14,21.77" transform="translate(-4.16 -27.24)"/><path class="cls-10" d="M337.61,79.24s-3,22.24-20.25,30.46" transform="translate(-4.16 -27.24)"/></svg>