<svg id="Layer_1" data-name="Layer 1" xmlns="http://www.w3.org/2000/svg" viewBox="0 0 863.1 729.45"><defs><style>.cls-1,.cls-3,.cls-4{isolation:isolate;}.cls-1,.cls-3{font-size:15px;}.cls-1{font-family:ArialMT, Arial;}.cls-2{fill:none;stroke:#000;stroke-miterlimit:10;stroke-width:0.5px;}.cls-3{font-family:Arial-ItalicMT, Arial;font-style:italic;}</style></defs><text class="cls-1" transform="translate(721.42 12.87)">Cerebro pequeño</text><line class="cls-2" x1="752.37" y1="163.51" x2="752.37" y2="185.49"/><text class="cls-1" transform="translate(748.12 159.96)">Aliento atómico</text><line class="cls-2" x1="574.09" y1="322.19" x2="674.89" y2="322.19"/><text class="cls-1" transform="translate(677.82 328.58)">Corazón</text><text class="cls-1" transform="translate(678.81 494.85)">Pulmones</text><text class="cls-3" transform="translate(678.81 512.35)">Puede respirar bajo el agua</text><path class="cls-2" d="M598.64,403.15s19.82,88.19,98,98.9" transform="translate(-21.14 -11.97)"/><path class="cls-2" d="M265.11,317.42s.66,25.11,24.11,27.75" transform="translate(-21.14 -11.97)"/><g class="cls-4"><text class="cls-1" transform="translate(92.4 284.32)">Descarga eléctrica a</text><text class="cls-1" transform="translate(62.55 302.32)">través de las placas dorsales</text></g><g class="cls-4"><text class="cls-3" transform="translate(1.72 610.64)">La textura de la piel</text><text class="cls-3" transform="translate(2.36 625.66)">se inspiró en las </text><text class="cls-3" transform="translate(1.72 643.66)">cicatrices queloides</text><text class="cls-3" transform="translate(1.72 661.66)">que se ven en los</text><text class="cls-3" transform="translate(1.19 679.82)">sobrevivientes de</text><text class="cls-3" transform="translate(1.72 697.82)">Hiroshima.</text></g><g class="cls-4"><text class="cls-1" transform="translate(0 569.68)">Escamas de carbono</text><text class="cls-1" transform="translate(1.18 587.68)">que cubren el cuerpo</text></g><path class="cls-2" d="M159,530.78s-30,15.05-30.06,38" transform="translate(-21.14 -11.97)"/><line class="cls-2" x1="694.43" y1="719.47" x2="630.13" y2="719.47"/><text class="cls-1" transform="translate(699.61 724.58)">Huesos</text><path class="cls-2" d="M721.51,654.82s-26.76-35.67-73.09-27.27" transform="translate(-21.14 -11.97)"/><text class="cls-1" transform="translate(699.61 659.84)">Musculos</text><path class="cls-2" d="M575.86,510s60.34,3,96.67,40.62" transform="translate(-21.14 -11.97)"/><text class="cls-1" transform="translate(649.08 552.69)">Horno atómico</text><text class="cls-1" transform="translate(610.11 253.93)">Bolsillos de Uranio</text><path class="cls-2" d="M709.76,34.57S716.7,20.7,736.51,20.7" transform="translate(-21.14 -11.97)"/><path class="cls-2" d="M480.2,79c41.16,11.08,76.83,58.64,93.67,98.28" transform="translate(-21.14 -11.97)"/><text class="cls-1" transform="translate(345.54 69.94)">Inductor de calor</text><line class="cls-2" x1="553.24" y1="294.23" x2="662.95" y2="294.23"/><text class="cls-1" transform="translate(666.59 298.19)">Esternón</text><path class="cls-2" d="M594.68,288.22s35.67,5.94,49.54-16.84" transform="translate(-21.14 -11.97)"/></svg>