<svg id="Layer_1" data-name="Layer 1" xmlns="http://www.w3.org/2000/svg" viewBox="0 0 422.06 497.65"><defs><style>.cls-1,.cls-3,.cls-4{isolation:isolate;}.cls-1,.cls-4{font-size:15px;}.cls-1{font-family:ArialMT, Arial;}.cls-2{fill:none;stroke:#000;stroke-miterlimit:10;stroke-width:0.5px;}.cls-4{font-family:Arial-ItalicMT, Arial;font-style:italic;}</style></defs><text class="cls-1" transform="translate(179.83 12.87)">Cerebro pequeño</text><line class="cls-2" x1="388.18" y1="88.71" x2="388.18" y2="110.7"/><g class="cls-3"><text class="cls-1" transform="translate(372.54 65.65)">Aliento</text><text class="cls-1" transform="translate(366.06 83.82)">atómico</text></g><line class="cls-2" x1="293.64" y1="180.72" x2="360.4" y2="180.72"/><text class="cls-1" transform="translate(364.84 186.3)">Corazón</text><text class="cls-1" transform="translate(339.01 260.7)">Pulmones</text><g class="cls-3"><text class="cls-4" transform="translate(322.36 278.21)">Puede respirar</text><text class="cls-4" transform="translate(336.01 296.21)">bajo el agua</text></g><path class="cls-2" d="M295.2,218.29s11.72,37.4,42.62,44.71" transform="translate(-1.8 -8.04)"/><path class="cls-2" d="M88.09,163.9s9.08,40.57,48.91,40.57" transform="translate(-1.8 -8.04)"/><g class="cls-3"><text class="cls-1" transform="translate(4.56 116.03)">Descarga eléctrica</text><text class="cls-1" transform="translate(4.56 134.03)">a través de las</text><text class="cls-1" transform="translate(4.56 152.03)">placas dorsales</text></g><g class="cls-3"><text class="cls-4" transform="translate(0 402.78)">La textura de la piel</text><text class="cls-4" transform="translate(0 420.78)">se inspiró en las</text><text class="cls-4" transform="translate(0 438.78)">cicatrices queloides</text><text class="cls-4" transform="translate(0 456.78)">que se ven en los</text><text class="cls-4" transform="translate(0 474.78)">sobrevivientes de</text><text class="cls-4" transform="translate(0 492.78)">Hiroshima.</text></g><g class="cls-3"><text class="cls-1" transform="translate(0 364.8)">Escamas de carbono</text><text class="cls-1" transform="translate(0 382.8)">que cubren el cuerpo</text></g><path class="cls-2" d="M90.06,300.83s-48.18,10.95-49,57.3" transform="translate(-1.8 -8.04)"/><text class="cls-1" transform="translate(360.63 383.02)">Huesos</text><text class="cls-1" transform="translate(356.34 356.75)">Musculos</text><path class="cls-2" d="M279.28,281.7S337,397.15,278.47,476" transform="translate(-1.8 -8.04)"/><g class="cls-3"><text class="cls-1" transform="translate(225.54 474.78)">Horno</text><text class="cls-1" transform="translate(225.54 492.78)">atómico</text></g><text class="cls-1" transform="translate(54.01 67.23)">Bolsillos de Uranio</text><path class="cls-2" d="M300.23,15.66s15.41-1.7,26.16,15" transform="translate(-1.8 -8.04)"/><path class="cls-2" d="M208.87,41.7c31.39,5.86,60.07,31.26,76.91,70.9" transform="translate(-1.8 -8.04)"/><text class="cls-1" transform="translate(93.6 33.67)">Inductor de calor</text><line class="cls-2" x1="282.54" y1="164.07" x2="325.44" y2="164.07"/><text class="cls-1" transform="translate(330.04 167.96)">Esternón</text><path class="cls-2" d="M289.85,150S249.2,75.2,184.16,71.13" transform="translate(-1.8 -8.04)"/><path class="cls-2" d="M322.37,328.86s30.08-1.63,42.28,21.95" transform="translate(-1.8 -8.04)"/><line class="cls-2" x1="321.38" y1="378.34" x2="356.34" y2="378.34"/></svg>